<?xml version="1.0" encoding="UTF-8" standalone="no"?>
<svg width="76px" height="76px" viewBox="0 0 76 76" version="1.1" xmlns="http://www.w3.org/2000/svg" xmlns:xlink="http://www.w3.org/1999/xlink" xmlns:sketch="http://www.bohemiancoding.com/sketch/ns">
    <!-- Generator: Sketch 3.3.3 (12072) - http://www.bohemiancoding.com/sketch -->
    <title>beta</title>
    <desc>Created with Sketch.</desc>
    <defs>
        <path id="path-1" d="M0,0 L76,0 L0,76 L0,0 Z"></path>
    </defs>
    <g id="Page-1" stroke="none" stroke-width="1" fill="none" fill-rule="evenodd" sketch:type="MSPage">
        <g id="beta" sketch:type="MSArtboardGroup">
            <mask id="mask-2" sketch:name="Mask" fill="white">
                <use xlink:href="#path-1"></use>
            </mask>
            <use id="Mask" fill="#4A4A4A" sketch:type="MSShapeGroup" xlink:href="#path-1"></use>
            <path d="M20.3047301,39.3580842 C20.8157278,39.8690819 21.1701984,40.4169 21.3681524,41.001555 C21.5661065,41.58621 21.6282539,42.1685545 21.5545966,42.7486059 C21.4717321,43.4391434 21.2634231,44.0801827 20.9296634,44.671743 C20.5959036,45.2633034 20.0722539,45.9158515 19.3586986,46.6294068 L15.7126793,50.2754262 L5.43062851,39.9933754 L8.4758833,36.9481206 C9.2262673,36.1977366 9.81551705,35.663729 10.2436503,35.3460818 C10.6717835,35.0284346 11.1436436,34.7867501 11.6592449,34.6210212 C12.2346927,34.4414814 12.7629459,34.4219165 13.2440203,34.5623258 C13.7250947,34.7027351 14.1819935,34.9893038 14.6147303,35.4220406 C15.10271,35.9100203 15.3938823,36.4497823 15.4882557,37.0413427 C15.5826292,37.6329031 15.5262361,38.239416 15.3190749,38.8608997 L15.3743176,38.9161424 C16.2121697,38.3637125 17.0649706,38.1208772 17.932746,38.1876291 C18.8005213,38.2543811 19.5911748,38.6445288 20.3047301,39.3580842 L20.3047301,39.3580842 L20.3047301,39.3580842 Z M13.3717691,37.0240794 C13.1231756,36.7754859 12.8722841,36.6074576 12.6190871,36.5199896 C12.36589,36.4325215 12.0942827,36.427918 11.804257,36.5061789 C11.4635919,36.5982506 11.1240828,36.783542 10.7857194,37.0620587 C10.4473561,37.3405755 10.050303,37.7077057 9.59454833,38.1634604 L7.96488817,39.7931206 L10.9341842,42.7624166 L12.7019512,40.9946497 C13.1300844,40.5665165 13.4488777,40.2039898 13.6583407,39.9070587 C13.8678037,39.6101276 14.0116635,39.284429 14.0899244,38.9299531 C14.1681854,38.5754772 14.142866,38.2440243 14.0139657,37.9355842 C13.8850654,37.6271442 13.671002,37.3233123 13.3717691,37.0240794 L13.3717691,37.0240794 L13.3717691,37.0240794 Z M18.9374729,40.8358269 C18.5231504,40.4215044 18.1318518,40.1545006 17.7635651,40.0348075 C17.3952785,39.9151143 16.9625482,39.9335284 16.4653613,40.0900502 C16.1292997,40.1959326 15.786338,40.3892802 15.4364657,40.6700987 C15.0865934,40.9509173 14.6860877,41.3168966 14.2349366,41.7680477 L12.0873759,43.9156084 L15.9129341,47.7411665 L17.7221331,45.9319675 C18.3205989,45.3335018 18.7797994,44.8121538 19.0997484,44.3679081 C19.4196974,43.9236624 19.6187993,43.4966865 19.6970602,43.0869676 C19.7753212,42.6496272 19.7592089,42.2560268 19.6487229,41.9061545 C19.5382369,41.5562822 19.3011559,41.1995099 18.9374729,40.8358269 L18.9374729,40.8358269 L18.9374729,40.8358269 Z M32.1819144,33.8061911 L25.4077761,40.5803293 L15.1257254,30.2982785 L21.8998636,23.5241403 L23.1152034,24.7394801 L17.7083224,30.1463611 L20.525701,32.9637396 L25.932582,27.5568587 L27.1479217,28.7721985 L21.7410408,34.1790794 L25.5596936,37.9977323 L30.9665746,32.5908513 L32.1819144,33.8061911 L32.1819144,33.8061911 Z M32.6169508,15.2377327 L28.9433101,18.9113734 L38.010021,27.9780844 L36.6427638,29.3453417 L27.5760528,20.2786307 L23.9024121,23.9522714 L22.6870723,22.7369316 L31.401611,14.022393 L32.6169508,15.2377327 L32.6169508,15.2377327 Z M50.3429577,15.6451478 L48.885931,17.1021745 L45.0120354,15.2446381 L40.5649967,19.6916768 L42.4225331,23.5655724 L41.0345598,24.9535456 L34.4952031,10.9288008 L36.3182128,9.10579112 L50.3429577,15.6451478 L50.3429577,15.6451478 Z M43.416902,14.4919561 L36.566805,11.2464464 L39.8054093,18.1034487 L43.416902,14.4919561 L43.416902,14.4919561 Z" id="BETA" fill="#FFFFFF" sketch:type="MSShapeGroup" mask="url(#mask-2)"></path>
        </g>
    </g>
</svg>