<?xml version="1.0" encoding="utf-8"?>
<!-- Generator: Adobe Illustrator 19.1.0, SVG Export Plug-In . SVG Version: 6.00 Build 0)  -->
<svg version="1.2" baseProfile="tiny" id="Camada_1"
	 xmlns="http://www.w3.org/2000/svg" xmlns:xlink="http://www.w3.org/1999/xlink" x="0px" y="0px" viewBox="0 0 4096 4096"
	 xml:space="preserve">
<g id="Curva_3_">
	<path fill="#1C1B1A" d="M256,279.8c0,8.8,114.7,19.8,169.7,32.7c84,19.7,163.5,44,236.4,72.2c173.2,67,308.3,155.3,401.8,262.6
		c25.2,29,47.8,59.8,67,91.7c20.1,33.3,37.3,68.9,51.1,105.7c14.7,39.3,26,81.3,33.7,125c8.3,47.3,12.5,97.9,12.5,150.4
		c0,80.4-7.3,150.6-22.9,221c-16.8,75.4-43.9,152.7-82.9,236.3c-42.5,91.2-99.9,191.4-175.3,306.4c-76.7,117-173,250.9-294.8,409.4
		C492.7,2501,359,2721.8,256,2949.9V280 M0,0v4096l255.9-0.6c0-769.5,379.8-1360.4,599.4-1646.2
		c492.4-640.9,629.1-952.2,629.1-1329.1C1484.4,3.1,0,0,0,0L0,0z"/>
</g>
<g id="Curva_2_">
	<path fill="#1C1B1A" d="M3816.2,256c-8.8,0-19.8,114.7-32.7,169.7c-19.7,84-44,163.5-72.2,236.4c-67,173.2-155.3,308.3-262.6,401.8
		c-29,25.2-59.8,47.8-91.7,67c-33.3,20.1-68.9,37.3-105.7,51.1c-39.3,14.7-81.3,26-125,33.7c-47.3,8.3-97.9,12.5-150.5,12.5l0,512
		l0-512c-80.4,0-150.6-7.3-221-22.9c-75.4-16.8-152.7-43.9-236.3-82.9c-91.2-42.5-191.4-99.9-306.4-175.3
		c-117-76.7-250.9-173-409.4-294.8C1595,492.7,1374.2,359,1146.1,256H3816 M4096,0H0l0.6,255.9c769.5,0,1360.4,379.7,1646.2,599.3
		C2287.6,1347.6,2599,1484,2975.9,1484c0,0,0,0,0,0C4092.9,1484,4096,0,4096,0L4096,0z"/>
</g>
<g id="Curva">
	<path fill="#1C1B1A" d="M3840,1146v2670.2c-58-8.8-114.7-19.8-169.7-32.7c-84-19.7-163.5-44-236.4-72.2
		c-173.2-67-308.3-155.3-401.8-262.6c-25.2-29-47.8-59.8-67-91.7c-20.1-33.3-37.3-68.9-51.1-105.7c-14.7-39.3-26-81.3-33.7-125
		c-8.3-47.3-12.5-97.9-12.5-150.4c0-80.4,7.3-150.6,22.9-221c16.8-75.4,43.9-152.7,82.9-236.3c42.5-91.2,99.9-191.4,175.3-306.4
		c76.7-117,173-250.9,294.8-409.4c159.7-207.8,293.3-428.5,396.3-656.6 M4096,0l-255.9,0.6c0,769.5-379.8,1360.4-599.4,1646.2
		c-492.4,640.9-629.1,952.2-629.1,1329.1C2611.6,4092.9,4096,4096,4096,4096V0L4096,0z"/>
</g>
<g id="Curva_1_">
	<path fill="#1C1B1A" d="M1120.1,2868c80.4,0,150.6,7.2,221,22.8c75.4,16.8,152.7,43.8,236.3,82.8c91.2,42.5,191.4,99.9,306.4,175.3
		c117,76.7,250.9,173,409.4,294.8c207.8,159.7,428.5,293.3,656.6,396.3H279.8c8.8-58,19.8-114.7,32.7-169.7
		c19.7-84,44-163.5,72.2-236.4c67-173.2,155.3-308.3,262.6-401.8c29-25.2,59.8-47.8,91.7-67c33.3-20.1,68.9-37.3,105.7-51.1
		c39.3-14.7,81.3-25.9,125-33.6C1016.9,2872.1,1067.5,2868,1120.1,2868L1120.1,2868 M1120.1,2612
		C1120.1,2612,1120.1,2612,1120.1,2612C3.1,2612,0,4096,0,4096h4096l-0.6-255.9c-769.5,0-1360.4-379.7-1646.2-599.3
		C1808.4,2748.4,1497,2612,1120.1,2612L1120.1,2612z"/>
</g>
<path fill="#1C1B1A" d="M2048,1260.7c-434.8,0-787.3,352.5-787.3,787.3s352.5,787.3,787.3,787.3s787.3-352.5,787.3-787.3
	S2482.8,1260.7,2048,1260.7z M2048,2578.6c-293,0-530.6-237.5-530.6-530.6s237.5-530.6,530.6-530.6s530.6,237.5,530.6,530.6
	S2341,2578.6,2048,2578.6z"/>
</svg>
