<?xml version="1.0" encoding="utf-8"?>
<!-- Generator: Adobe Illustrator 19.1.0, SVG Export Plug-In . SVG Version: 6.00 Build 0)  -->
<svg version="1.2" baseProfile="tiny" id="Camada_1"
	 xmlns="http://www.w3.org/2000/svg" xmlns:xlink="http://www.w3.org/1999/xlink" x="0px" y="0px" viewBox="0 0 2095.9 680.3"
	 xml:space="preserve">
<g>
	<path fill="#1C1B1A" d="M1028,249.6c-1.9,3.1-3.8,5.3-5.7,6.7c-1.9,1.4-4.4,2.1-7.5,2.1c-2.9,0-6.1-1-9.5-3.1
		c-3.4-2.1-7.4-4.3-11.9-6.7c-4.5-2.4-9.7-4.6-15.6-6.7c-5.9-2.1-12.7-3.1-20.6-3.1c-13.9,0-24.3,3.1-31.2,9.3
		c-6.9,6.2-10.4,14.3-10.4,24.3c0,6.4,1.9,11.7,5.7,15.9c3.8,4.2,8.8,7.8,15,10.9c6.2,3.1,13.2,5.8,21.1,8.2
		c7.9,2.4,15.9,5,24.2,7.9c8.3,2.9,16.3,6.2,24.2,10.1c7.9,3.9,14.9,8.7,21.1,14.6c6.2,5.9,11.2,13,15,21.5
		c3.8,8.5,5.7,18.8,5.7,30.9c0,13.2-2.3,25.6-6.9,37.1c-4.6,11.5-11.2,21.6-19.9,30.2c-8.7,8.6-19.4,15.4-32.1,20.3
		c-12.7,4.9-27.2,7.4-43.3,7.4c-9.2,0-18.4-0.9-27.5-2.8c-9.1-1.9-17.9-4.5-26.4-7.8c-8.5-3.3-16.4-7.3-23.9-12
		c-7.5-4.7-14-9.9-19.6-15.6l17.6-28.4c1.5-2.1,3.4-3.9,5.8-5.3c2.4-1.4,4.9-2.1,7.6-2.1c3.6,0,7.4,1.3,11.4,4
		c4,2.7,8.6,5.6,13.8,8.8s11.2,6.1,18.1,8.8c6.9,2.7,15.1,4,24.7,4c14,0,24.8-3.2,32.5-9.6c7.7-6.4,11.5-15.9,11.5-28.6
		c0-7.3-1.9-13.3-5.7-17.8c-3.8-4.5-8.8-8.3-14.9-11.4c-6.1-3.1-13.1-5.7-21-7.9c-7.9-2.2-15.9-4.6-24.2-7.3
		c-8.3-2.7-16.3-5.9-24.2-9.6c-7.9-3.7-14.9-8.7-21-14.8c-6.1-6.1-11.1-13.7-14.9-22.8c-3.8-9.1-5.7-20.3-5.7-33.8
		c0-10.8,2.1-21.3,6.4-31.4c4.3-10.1,10.5-19.1,18.8-27c8.3-7.9,18.4-14.2,30.5-19c12.1-4.8,25.9-7.2,41.5-7.2
		c17.5,0,33.6,2.7,48.5,8.1c14.9,5.4,27.4,12.9,37.7,22.5L1028,249.6z"/>
	<path fill="#1C1B1A" d="M1129.3,194.3c1.8,0.2,3.4,0.7,4.9,1.4c1.5,0.7,2.9,1.7,4.2,2.9c1.3,1.2,2.8,2.8,4.4,4.8l145.6,185
		c-0.5-5.1-0.9-10-1.2-14.8c-0.3-4.8-0.4-9.3-0.4-13.6V194h53v290.2h-31c-4.7,0-8.6-0.8-11.8-2.3c-3.2-1.5-6.3-4.2-9.4-7.9
		L1143,290.2c0.4,4.7,0.7,9.2,0.9,13.7c0.2,4.5,0.3,8.6,0.3,12.5v167.8h-53V194h31.6C1125.3,194,1127.5,194.1,1129.3,194.3z"/>
	<path fill="#1C1B1A" d="M1461,484.2h-60.4V194h60.4V484.2z"/>
	<path fill="#1C1B1A" d="M1582.2,484.2h-60.4V194h60.4V484.2z"/>
	<path fill="#1C1B1A" d="M1840.6,412.8c3.3,0,6.1,1.2,8.4,3.6l23.8,25.4c-11.7,14.9-26.3,26.3-43.7,34
		c-17.4,7.7-38.1,11.6-62.1,11.6c-21.7,0-41.3-3.7-58.6-11.1c-17.3-7.4-32.1-17.7-44.2-30.9c-12.1-13.2-21.5-28.9-28-47
		c-6.5-18.1-9.8-37.9-9.8-59.4c0-14.4,1.6-28.1,4.7-41.1c3.1-13,7.7-25,13.7-35.9c6-10.9,13.2-20.8,21.7-29.6
		c8.5-8.8,18-16.3,28.7-22.5c10.7-6.2,22.3-10.9,34.9-14.2c12.6-3.3,26-4.9,40.3-4.9c10.7,0,20.8,0.9,30.3,2.8
		c9.5,1.9,18.4,4.5,26.7,7.8c8.3,3.3,15.9,7.4,22.9,12.1c7,4.7,13.3,9.9,18.9,15.5l-20.2,27.6c-1.2,1.7-2.7,3.3-4.6,4.6
		c-1.9,1.3-4.4,2-7.6,2s-6.4-1.1-9.7-3.4c-3.3-2.3-7.3-4.8-12-7.6c-4.7-2.8-10.7-5.3-17.8-7.6c-7.1-2.3-16.2-3.4-27.1-3.4
		c-12.1,0-23.3,2.2-33.4,6.6c-10.1,4.4-18.8,10.8-26.1,19.1c-7.3,8.3-12.9,18.6-16.9,30.7c-4,12.1-6,25.9-6,41.4
		c0,15.6,2.2,29.5,6.5,41.7c4.3,12.2,10.3,22.5,17.8,30.9c7.5,8.4,16.3,14.8,26.4,19.1c10.1,4.3,20.8,6.5,32.3,6.5
		c6.8,0,13-0.3,18.5-1c5.5-0.7,10.7-1.8,15.4-3.4c4.7-1.6,9.2-3.7,13.4-6.2c4.2-2.5,8.4-5.7,12.7-9.6c1.5-1.2,3-2.2,4.6-3
		C1837,413.2,1838.7,412.8,1840.6,412.8z"/>
</g>
<g>
	<path fill="#1C1B1A" d="M255.1,144.2c0,1,12.7,2.2,18.8,3.6c9.3,2.2,18.1,4.9,26.2,8c19.2,7.4,34.1,17.2,44.5,29.1
		c2.8,3.2,5.3,6.6,7.4,10.2c2.2,3.7,4.1,7.6,5.7,11.7c1.6,4.4,2.9,9,3.7,13.8c0.9,5.2,1.4,10.8,1.4,16.7c0,8.9-0.8,16.7-2.5,24.5
		c-1.9,8.4-4.9,16.9-9.2,26.2c-4.7,10.1-11.1,21.2-19.4,33.9c-8.5,13-19.2,27.8-32.6,45.3c-17.7,23-32.5,47.5-43.9,72.7V144.2
		 M226.8,113.2v453.5l28.3-0.1c0-85.2,42.1-150.6,66.4-182.3c54.5-71,69.7-105.4,69.7-147.2C391.1,113.6,226.8,113.2,226.8,113.2"/>
	<path fill="#1C1B1A" d="M649.3,141.6c-1,0-2.2,12.7-3.6,18.8c-2.2,9.3-4.9,18.1-8,26.2c-7.4,19.2-17.2,34.1-29.1,44.5
		c-3.2,2.8-6.6,5.3-10.2,7.4c-3.7,2.2-7.6,4.1-11.7,5.7c-4.4,1.6-9,2.9-13.8,3.7c-5.2,0.9-10.8,1.4-16.7,1.4
		c-8.9,0-16.7-0.8-24.5-2.5c-8.4-1.9-16.9-4.9-26.2-9.2c-10.1-4.7-21.2-11.1-33.9-19.4c-13-8.5-27.8-19.2-45.3-32.6
		c-23-17.7-47.5-32.5-72.7-43.9H649.3 M680.3,113.2H226.8l0.1,28.3c85.2,0,150.6,42.1,182.3,66.4c71,54.5,105.4,69.7,147.2,69.7
		C680,277.6,680.3,113.2,680.3,113.2"/>
	<path fill="#1C1B1A" d="M652,535.8c0-1-12.7-2.2-18.8-3.6c-9.3-2.2-18.1-4.9-26.2-8c-19.2-7.4-34.1-17.2-44.5-29.1
		c-2.8-3.2-5.3-6.6-7.4-10.2c-2.2-3.7-4.1-7.6-5.7-11.7c-1.6-4.4-2.9-9-3.7-13.8c-0.9-5.2-1.4-10.8-1.4-16.7
		c0-8.9,0.8-16.7,2.5-24.5c1.9-8.4,4.9-16.9,9.2-26.2c4.7-10.1,11.1-21.2,19.4-33.9c8.5-13,19.2-27.8,32.6-45.3
		c17.7-23,32.5-47.5,43.9-72.7V535.8 M680.3,566.8V113.2l-28.3,0.1c0,85.2-42.1,150.6-66.4,182.3c-54.5,71-69.7,105.4-69.7,147.2
		C516,566.4,680.3,566.8,680.3,566.8"/>
	<path fill="#1C1B1A" d="M257.8,538.4c1,0,2.2-12.7,3.6-18.8c2.2-9.3,4.9-18.1,8-26.2c7.4-19.2,17.2-34.1,29.1-44.5
		c3.2-2.8,6.6-5.3,10.2-7.4c3.7-2.2,7.6-4.1,11.7-5.7c4.4-1.6,9-2.9,13.8-3.7c5.2-0.9,10.8-1.4,16.7-1.4c8.9,0,16.7,0.8,24.5,2.5
		c8.4,1.9,16.9,4.9,26.2,9.2c10.1,4.7,21.2,11.1,33.9,19.4c13,8.5,27.8,19.2,45.3,32.6c23,17.7,47.5,32.5,72.7,43.9H257.8
		 M226.8,566.8h453.5l-0.1-28.3c-85.2,0-150.6-42.1-182.3-66.4c-71-54.5-105.4-69.7-147.2-69.7C227.1,402.4,226.8,566.8,226.8,566.8
		"/>
	<path fill="#1C1B1A" d="M453.5,252.8c-48.1,0-87.2,39-87.2,87.2s39,87.2,87.2,87.2s87.2-39,87.2-87.2S501.7,252.8,453.5,252.8
		 M453.5,398.7c-32.4,0-58.7-26.3-58.7-58.7c0-32.4,26.3-58.7,58.7-58.7s58.7,26.3,58.7,58.7C512.3,372.4,486,398.7,453.5,398.7"/>
</g>
<g>
</g>
<g>
</g>
<g>
</g>
<g>
</g>
<g>
</g>
<g>
</g>
<g>
</g>
<g>
</g>
<g>
</g>
<g>
</g>
<g>
</g>
<g>
</g>
<g>
</g>
<g>
</g>
<g>
</g>
</svg>
