<svg version="1.2" baseProfile="tiny" xmlns="http://www.w3.org/2000/svg" xmlns:xlink="http://www.w3.org/1999/xlink" x="0px" y="0px" viewBox="0 0 2952.3 680.3" xml:space="preserve">
<g class="heading-small">
	<path d="M2020.3,216.8c-0.3,0.5-0.6,0.8-0.9,1.1c-0.3,0.2-0.7,0.3-1.2,0.3c-0.5,0-1.2-0.2-1.8-0.7
		c-0.7-0.5-1.6-1-2.6-1.7s-2.3-1.2-3.7-1.7c-1.4-0.5-3.2-0.7-5.2-0.7c-1.9,0-3.6,0.2-5.1,0.7c-1.5,0.5-2.7,1.2-3.6,2
		c-1,0.9-1.7,1.9-2.2,3.1c-0.5,1.2-0.7,2.5-0.7,3.8c0,1.8,0.4,3.2,1.3,4.4c0.9,1.1,2,2.1,3.5,2.9c1.4,0.8,3.1,1.5,4.9,2.1
		c1.8,0.6,3.7,1.2,5.6,1.9c1.9,0.7,3.8,1.4,5.6,2.2c1.8,0.8,3.5,1.9,4.9,3.2c1.4,1.3,2.6,2.8,3.5,4.7c0.9,1.8,1.3,4.1,1.3,6.8
		c0,2.8-0.5,5.5-1.5,8c-1,2.5-2.4,4.6-4.3,6.5c-1.9,1.8-4.1,3.3-6.8,4.4c-2.7,1.1-5.8,1.6-9.2,1.6c-2.1,0-4.1-0.2-6-0.6
		c-1.9-0.4-3.8-1-5.5-1.7c-1.7-0.7-3.3-1.6-4.9-2.7s-2.9-2.2-4.1-3.5l2.7-4.4c0.2-0.4,0.5-0.7,0.9-0.9s0.8-0.3,1.2-0.3
		c0.6,0,1.4,0.3,2.2,1c0.8,0.7,1.8,1.4,3.1,2.2s2.7,1.5,4.4,2.2c1.7,0.7,3.8,1,6.2,1c2,0,3.8-0.3,5.4-0.8c1.6-0.5,2.9-1.3,4-2.3
		c1.1-1,1.9-2.2,2.5-3.6c0.6-1.4,0.9-3,0.9-4.7c0-1.9-0.4-3.5-1.3-4.7s-2-2.2-3.5-3c-1.4-0.8-3.1-1.5-4.9-2.1
		c-1.8-0.6-3.7-1.2-5.6-1.8c-1.9-0.6-3.8-1.3-5.6-2.1c-1.8-0.8-3.5-1.9-4.9-3.2c-1.4-1.3-2.6-2.9-3.5-4.9s-1.3-4.4-1.3-7.2
		c0-2.3,0.5-4.5,1.3-6.7c0.9-2.2,2.2-4.1,3.9-5.7c1.7-1.6,3.8-3,6.3-4c2.5-1,5.4-1.5,8.6-1.5c3.6,0,7,0.6,10,1.7
		c3,1.1,5.6,2.8,7.9,4.9L2020.3,216.8z"/>
	<path d="M2044.1,211.2c0,0.8-0.2,1.6-0.5,2.3c-0.3,0.7-0.8,1.3-1.3,1.9c-0.6,0.5-1.2,1-1.9,1.3
		c-0.7,0.3-1.5,0.5-2.3,0.5c-0.8,0-1.5-0.2-2.2-0.5c-0.7-0.3-1.3-0.7-1.9-1.3c-0.5-0.5-1-1.2-1.3-1.9c-0.3-0.7-0.5-1.5-0.5-2.3
		s0.2-1.6,0.5-2.3c0.3-0.7,0.7-1.4,1.3-1.9c0.5-0.5,1.2-1,1.9-1.3c0.7-0.3,1.4-0.5,2.2-0.5c0.8,0,1.6,0.2,2.3,0.5
		c0.7,0.3,1.4,0.7,1.9,1.3c0.6,0.5,1,1.2,1.3,1.9C2043.9,209.6,2044.1,210.4,2044.1,211.2z M2042.4,225.3V271h-8.5v-45.7H2042.4z"/>
	<path d="M2082.1,233.1c-0.4,0.7-1,1.1-1.8,1.1c-0.5,0-1-0.2-1.6-0.5s-1.3-0.7-2.1-1.1s-1.8-0.8-2.9-1.1
		s-2.5-0.5-4-0.5c-1.3,0-2.5,0.2-3.5,0.5c-1.1,0.3-1.9,0.8-2.7,1.3c-0.7,0.6-1.3,1.2-1.7,2c-0.4,0.8-0.6,1.6-0.6,2.5
		c0,1.1,0.3,2.1,1,2.9c0.7,0.8,1.6,1.4,2.7,2c1.1,0.6,2.3,1.1,3.8,1.5c1.4,0.4,2.8,0.9,4.3,1.4c1.5,0.5,2.9,1,4.3,1.6
		c1.4,0.6,2.7,1.4,3.8,2.3c1.1,0.9,2,2,2.7,3.3c0.7,1.3,1,2.9,1,4.7c0,2.1-0.4,4.1-1.1,5.9c-0.8,1.8-1.9,3.4-3.4,4.7
		c-1.5,1.3-3.3,2.4-5.5,3.1s-4.7,1.1-7.5,1.1c-3.2,0-6.1-0.5-8.7-1.6c-2.6-1-4.8-2.4-6.6-4l2-3.2c0.2-0.4,0.5-0.7,0.9-1
		c0.4-0.2,0.8-0.3,1.4-0.3c0.6,0,1.2,0.2,1.8,0.6c0.6,0.4,1.3,0.9,2.2,1.4c0.9,0.5,1.9,1,3.1,1.4s2.7,0.6,4.5,0.6
		c1.5,0,2.9-0.2,4-0.6c1.1-0.4,2.1-0.9,2.8-1.6c0.8-0.6,1.3-1.4,1.7-2.3c0.4-0.9,0.5-1.8,0.5-2.7c0-1.2-0.3-2.2-1-3.1
		c-0.7-0.8-1.6-1.5-2.7-2.1c-1.1-0.6-2.3-1.1-3.8-1.5c-1.4-0.4-2.9-0.9-4.3-1.3c-1.5-0.5-2.9-1-4.3-1.6c-1.4-0.6-2.7-1.4-3.8-2.4
		c-1.1-1-2-2.1-2.7-3.5s-1-3-1-5c0-1.8,0.4-3.5,1.1-5.1c0.7-1.6,1.8-3,3.2-4.3c1.4-1.2,3.1-2.2,5.2-2.9c2-0.7,4.4-1.1,7-1.1
		c3,0,5.7,0.5,8.2,1.4c2.4,0.9,4.5,2.3,6.2,3.9L2082.1,233.1z"/>
	<path d="M2108.5,271.7c-3.7,0-6.5-1-8.5-3.1c-2-2-3-5-3-8.8v-27.5h-5.4c-0.5,0-0.9-0.2-1.3-0.5s-0.5-0.8-0.5-1.4
		v-3.4l7.4-1l1.9-13.8c0.1-0.5,0.3-0.9,0.7-1.1c0.3-0.3,0.8-0.4,1.3-0.4h4.3v15.4h13v6.2h-13v27c0,1.8,0.4,3.2,1.3,4.1
		c0.9,0.9,2,1.4,3.5,1.4c0.8,0,1.5-0.1,2.1-0.3c0.6-0.2,1.1-0.5,1.5-0.7c0.4-0.3,0.8-0.5,1.1-0.7c0.3-0.2,0.6-0.3,0.8-0.3
		c0.3,0,0.5,0.1,0.7,0.2c0.2,0.1,0.3,0.3,0.5,0.6l2.5,4.1c-1.4,1.3-3.1,2.3-5.1,3.1C2112.7,271.4,2110.6,271.7,2108.5,271.7z"/>
	<path d="M2145.6,224.6c2.8,0,5.3,0.5,7.6,1.4c2.3,0.9,4.4,2.2,6.1,4s3,3.9,4,6.4s1.4,5.4,1.4,8.7
		c0,1.3-0.1,2.2-0.4,2.7c-0.3,0.5-0.8,0.7-1.6,0.7h-30.2c0.1,2.8,0.5,5.2,1.2,7.3c0.7,2.1,1.7,3.8,2.9,5.2s2.7,2.4,4.4,3.1
		c1.7,0.7,3.6,1,5.7,1c2,0,3.7-0.2,5.1-0.7c1.4-0.4,2.7-0.9,3.7-1.5s1.9-1,2.6-1.5s1.3-0.7,1.9-0.7c0.7,0,1.2,0.3,1.6,0.8l2.4,3.1
		c-1,1.3-2.3,2.3-3.6,3.2s-2.9,1.6-4.5,2.2c-1.6,0.6-3.2,1-4.9,1.3c-1.7,0.3-3.4,0.4-5,0.4c-3.1,0-6.1-0.5-8.8-1.6
		c-2.7-1.1-5-2.6-7-4.7s-3.5-4.6-4.6-7.7s-1.6-6.5-1.6-10.5c0-3.2,0.5-6.1,1.5-8.9c1-2.7,2.4-5.1,4.3-7.2c1.8-2,4.1-3.6,6.8-4.8
		C2139.3,225.2,2142.3,224.6,2145.6,224.6z M2145.8,230.9c-3.8,0-6.7,1.1-8.8,3.3c-2.1,2.2-3.5,5.2-4,9h24.3c0-1.8-0.3-3.5-0.8-5
		c-0.5-1.5-1.3-2.8-2.2-3.9c-1-1.1-2.2-1.9-3.6-2.5S2147.6,230.9,2145.8,230.9z"/>
	<path d="M2174.4,271v-45.7h5.1c1.2,0,2,0.6,2.2,1.7l0.6,4.5c1.7-2,3.6-3.7,5.6-4.9c2.1-1.3,4.5-1.9,7.2-1.9
		c3.1,0,5.5,0.8,7.4,2.5c1.9,1.7,3.3,3.9,4.1,6.8c0.7-1.6,1.5-3,2.6-4.2c1-1.2,2.2-2.1,3.5-2.9s2.7-1.3,4.1-1.7
		c1.5-0.4,2.9-0.5,4.4-0.5c4.9,0,8.7,1.5,11.3,4.5c2.7,3,4,7.3,4,12.8V271h-8.5v-29.1c0-3.4-0.8-6.1-2.3-7.8
		c-1.5-1.8-3.7-2.7-6.6-2.7c-1.3,0-2.5,0.2-3.7,0.7c-1.2,0.4-2.2,1.1-3,2s-1.6,2-2.1,3.3c-0.5,1.3-0.8,2.8-0.8,4.5V271h-8.5v-29.1
		c0-3.5-0.7-6.2-2.1-7.9c-1.4-1.7-3.5-2.6-6.3-2.6c-1.9,0-3.7,0.5-5.3,1.5c-1.7,1-3.2,2.4-4.5,4.2V271H2174.4z"/>
	<path d="M2277.8,271c-0.8,0-1.5-0.1-1.9-0.4c-0.5-0.3-0.8-0.8-1.1-1.6l-0.9-4.1c-1.2,1.1-2.3,2-3.5,2.9
		c-1.1,0.9-2.3,1.6-3.6,2.1c-1.2,0.6-2.6,1-4,1.3s-3,0.5-4.7,0.5c-1.8,0-3.5-0.2-5-0.7c-1.6-0.5-2.9-1.3-4.1-2.3
		c-1.2-1-2.1-2.3-2.7-3.8c-0.7-1.5-1-3.3-1-5.4c0-1.8,0.5-3.5,1.5-5.2c1-1.6,2.6-3.1,4.8-4.4s5.1-2.4,8.6-3.2
		c3.6-0.8,7.9-1.3,13.1-1.4v-3.4c0-3.4-0.7-6.1-2.2-7.8c-1.5-1.8-3.7-2.6-6.5-2.6c-2,0-3.6,0.2-4.9,0.7c-1.3,0.5-2.4,1-3.4,1.6
		c-0.9,0.6-1.8,1.1-2.5,1.6c-0.7,0.5-1.4,0.7-2.2,0.7c-0.6,0-1.1-0.2-1.5-0.5c-0.4-0.3-0.8-0.7-1.1-1.1l-1.5-2.8
		c2.5-2.4,5.3-4.2,8.3-5.4c3-1.2,6.2-1.8,9.8-1.8c2.6,0,4.9,0.4,6.9,1.3s3.7,2,5.1,3.5c1.4,1.5,2.4,3.3,3.1,5.5
		c0.7,2.1,1.1,4.5,1.1,7.1V271H2277.8z M2260.7,265.8c1.4,0,2.6-0.1,3.8-0.4c1.2-0.3,2.2-0.7,3.2-1.2c1-0.5,2-1.1,2.9-1.9
		c0.9-0.7,1.8-1.6,2.7-2.5v-9.2c-3.6,0.1-6.7,0.4-9.2,0.9c-2.5,0.4-4.6,1-6.1,1.8c-1.6,0.7-2.7,1.6-3.4,2.6c-0.7,1-1.1,2.1-1.1,3.3
		c0,1.2,0.2,2.2,0.6,3c0.4,0.8,0.9,1.5,1.6,2c0.7,0.5,1.4,0.9,2.3,1.2S2259.7,265.8,2260.7,265.8z"/>
	<path d="M2324.8,206.7c0.4,0.2,0.9,0.6,1.4,1.3l36.8,47.7c-0.1-0.8-0.1-1.6-0.2-2.4s-0.1-1.6-0.1-2.2v-44.5h8.1V271
		h-4.7c-0.7,0-1.3-0.1-1.8-0.4c-0.5-0.3-1-0.7-1.5-1.3l-36.8-47.7c0.1,0.8,0.1,1.6,0.2,2.3s0.1,1.5,0.1,2.1V271h-8.1v-64.6h4.8
		C2323.8,206.4,2324.4,206.5,2324.8,206.7z"/>
	<path d="M2413.1,271c-0.8,0-1.5-0.1-1.9-0.4c-0.5-0.3-0.8-0.8-1.1-1.6l-0.9-4.1c-1.2,1.1-2.3,2-3.5,2.9
		c-1.1,0.9-2.3,1.6-3.6,2.1c-1.2,0.6-2.6,1-4,1.3s-3,0.5-4.7,0.5c-1.8,0-3.5-0.2-5-0.7c-1.6-0.5-2.9-1.3-4.1-2.3
		c-1.2-1-2.1-2.3-2.7-3.8c-0.7-1.5-1-3.3-1-5.4c0-1.8,0.5-3.5,1.5-5.2c1-1.6,2.6-3.1,4.8-4.4s5.1-2.4,8.6-3.2
		c3.6-0.8,7.9-1.3,13.1-1.4v-3.4c0-3.4-0.7-6.1-2.2-7.8c-1.5-1.8-3.7-2.6-6.5-2.6c-2,0-3.6,0.2-4.9,0.7c-1.3,0.5-2.4,1-3.4,1.6
		c-0.9,0.6-1.8,1.1-2.5,1.6c-0.7,0.5-1.4,0.7-2.2,0.7c-0.6,0-1.1-0.2-1.5-0.5c-0.4-0.3-0.8-0.7-1.1-1.1l-1.5-2.8
		c2.5-2.4,5.3-4.2,8.3-5.4c3-1.2,6.2-1.8,9.8-1.8c2.6,0,4.9,0.4,6.9,1.3s3.7,2,5.1,3.5c1.4,1.5,2.4,3.3,3.1,5.5
		c0.7,2.1,1.1,4.5,1.1,7.1V271H2413.1z M2395.9,265.8c1.4,0,2.6-0.1,3.8-0.4c1.2-0.3,2.2-0.7,3.2-1.2c1-0.5,2-1.1,2.9-1.9
		c0.9-0.7,1.8-1.6,2.7-2.5v-9.2c-3.6,0.1-6.7,0.4-9.2,0.9c-2.5,0.4-4.6,1-6.1,1.8c-1.6,0.7-2.7,1.6-3.4,2.6c-0.7,1-1.1,2.1-1.1,3.3
		c0,1.2,0.2,2.2,0.6,3c0.4,0.8,0.9,1.5,1.6,2c0.7,0.5,1.4,0.9,2.3,1.2S2394.9,265.8,2395.9,265.8z"/>
	<path d="M2460.7,233.8c-0.2,0.3-0.5,0.6-0.7,0.8c-0.3,0.2-0.6,0.3-1.1,0.3c-0.5,0-1-0.2-1.5-0.6s-1.2-0.8-2-1.2
		c-0.8-0.4-1.7-0.8-2.9-1.2c-1.1-0.4-2.5-0.6-4.2-0.6c-2.2,0-4.1,0.4-5.8,1.2c-1.7,0.8-3.1,1.9-4.2,3.4c-1.1,1.5-2,3.2-2.5,5.3
		c-0.6,2.1-0.9,4.4-0.9,7c0,2.7,0.3,5.1,0.9,7.2c0.6,2.1,1.5,3.9,2.6,5.3s2.5,2.5,4.1,3.3c1.6,0.8,3.4,1.1,5.4,1.1
		c1.9,0,3.5-0.2,4.7-0.7c1.2-0.5,2.2-1,3.1-1.5s1.5-1,2-1.5c0.6-0.5,1.1-0.7,1.7-0.7c0.7,0,1.3,0.3,1.6,0.8l2.4,3.1
		c-1.1,1.3-2.2,2.3-3.5,3.2c-1.3,0.9-2.7,1.6-4.1,2.2c-1.5,0.6-3,1-4.6,1.3c-1.6,0.3-3.2,0.4-4.9,0.4c-2.8,0-5.5-0.5-8-1.6
		s-4.6-2.6-6.4-4.6c-1.8-2-3.2-4.5-4.3-7.4c-1-2.9-1.6-6.2-1.6-10c0-3.4,0.5-6.5,1.4-9.4c0.9-2.9,2.3-5.3,4.2-7.4s4.1-3.7,6.8-4.9
		s5.8-1.8,9.2-1.8c3.3,0,6.1,0.5,8.6,1.6c2.5,1,4.7,2.5,6.5,4.4L2460.7,233.8z"/>
	<path d="M2482.4,211.2c0,0.8-0.2,1.6-0.5,2.3c-0.3,0.7-0.8,1.3-1.3,1.9c-0.6,0.5-1.2,1-1.9,1.3
		c-0.7,0.3-1.5,0.5-2.3,0.5c-0.8,0-1.5-0.2-2.2-0.5c-0.7-0.3-1.3-0.7-1.9-1.3c-0.5-0.5-1-1.2-1.3-1.9c-0.3-0.7-0.5-1.5-0.5-2.3
		s0.2-1.6,0.5-2.3c0.3-0.7,0.7-1.4,1.3-1.9c0.5-0.5,1.2-1,1.9-1.3c0.7-0.3,1.4-0.5,2.2-0.5c0.8,0,1.6,0.2,2.3,0.5
		c0.7,0.3,1.4,0.7,1.9,1.3c0.6,0.5,1,1.2,1.3,1.9C2482.2,209.6,2482.4,210.4,2482.4,211.2z M2480.7,225.3V271h-8.5v-45.7H2480.7z"/>
	<path d="M2513,224.6c3.4,0,6.4,0.5,9.1,1.6c2.7,1.1,5,2.7,6.9,4.7c1.9,2,3.3,4.5,4.4,7.4c1,2.9,1.5,6.1,1.5,9.7
		s-0.5,6.9-1.5,9.8c-1,2.9-2.5,5.4-4.4,7.4c-1.9,2-4.2,3.6-6.9,4.7c-2.7,1.1-5.7,1.6-9.1,1.6c-3.4,0-6.4-0.5-9.1-1.6
		c-2.7-1.1-5-2.7-6.9-4.7c-1.9-2-3.4-4.5-4.4-7.4c-1-2.9-1.5-6.2-1.5-9.8s0.5-6.8,1.5-9.7c1-2.9,2.5-5.4,4.4-7.4
		c1.9-2,4.2-3.6,6.9-4.7C2506.6,225.2,2509.6,224.6,2513,224.6z M2513,265c4.4,0,7.6-1.5,9.8-4.4c2.2-2.9,3.2-7.1,3.2-12.4
		c0-5.3-1.1-9.5-3.2-12.4c-2.2-3-5.4-4.5-9.8-4.5c-4.4,0-7.7,1.5-9.9,4.5c-2.2,3-3.3,7.1-3.3,12.4c0,5.3,1.1,9.5,3.3,12.4
		C2505.2,263.5,2508.5,265,2513,265z"/>
	<path d="M2544.7,271v-45.7h5.1c1.2,0,2,0.6,2.2,1.7l0.6,4.7c2-2.1,4.2-3.9,6.6-5.2s5.2-2,8.4-2
		c2.5,0,4.7,0.4,6.6,1.3c1.9,0.8,3.5,2,4.8,3.5c1.3,1.5,2.3,3.3,2.9,5.4c0.7,2.1,1,4.5,1,7V271h-8.5v-29.1c0-3.3-0.8-5.9-2.3-7.7
		s-3.9-2.8-7-2.8c-2.3,0-4.5,0.5-6.4,1.6c-2,1.1-3.8,2.6-5.5,4.5V271H2544.7z"/>
	<path d="M2624.2,271c-0.8,0-1.5-0.1-1.9-0.4c-0.5-0.3-0.8-0.8-1.1-1.6l-0.9-4.1c-1.2,1.1-2.3,2-3.5,2.9
		c-1.1,0.9-2.3,1.6-3.6,2.1c-1.2,0.6-2.6,1-4,1.3s-3,0.5-4.7,0.5c-1.8,0-3.5-0.2-5-0.7c-1.6-0.5-2.9-1.3-4.1-2.3
		c-1.2-1-2.1-2.3-2.7-3.8c-0.7-1.5-1-3.3-1-5.4c0-1.8,0.5-3.5,1.5-5.2c1-1.6,2.6-3.1,4.8-4.4s5.1-2.4,8.6-3.2
		c3.6-0.8,7.9-1.3,13.1-1.4v-3.4c0-3.4-0.7-6.1-2.2-7.8c-1.5-1.8-3.7-2.6-6.5-2.6c-2,0-3.6,0.2-4.9,0.7c-1.3,0.5-2.4,1-3.4,1.6
		c-0.9,0.6-1.8,1.1-2.5,1.6c-0.7,0.5-1.4,0.7-2.2,0.7c-0.6,0-1.1-0.2-1.5-0.5c-0.4-0.3-0.8-0.7-1.1-1.1l-1.5-2.8
		c2.5-2.4,5.3-4.2,8.3-5.4c3-1.2,6.2-1.8,9.8-1.8c2.6,0,4.9,0.4,6.9,1.3s3.7,2,5.1,3.5c1.4,1.5,2.4,3.3,3.1,5.5
		c0.7,2.1,1.1,4.5,1.1,7.1V271H2624.2z M2607,265.8c1.4,0,2.6-0.1,3.8-0.4c1.2-0.3,2.2-0.7,3.2-1.2c1-0.5,2-1.1,2.9-1.9
		c0.9-0.7,1.8-1.6,2.7-2.5v-9.2c-3.6,0.1-6.7,0.4-9.2,0.9c-2.5,0.4-4.6,1-6.1,1.8c-1.6,0.7-2.7,1.6-3.4,2.6c-0.7,1-1.1,2.1-1.1,3.3
		c0,1.2,0.2,2.2,0.6,3c0.4,0.8,0.9,1.5,1.6,2c0.7,0.5,1.4,0.9,2.3,1.2S2606,265.8,2607,265.8z"/>
	<path d="M2648.7,204.6V271h-8.6v-66.4H2648.7z"/>
	<path d="M2717.1,271c-1.2,0-2-0.6-2.2-1.7l-0.8-5.4c-1,1.2-2,2.2-3.1,3.2c-1.1,0.9-2.3,1.8-3.6,2.4
		c-1.3,0.7-2.6,1.2-4,1.6c-1.4,0.4-2.9,0.5-4.5,0.5c-2.6,0-5-0.5-7.1-1.5c-2.1-1-3.9-2.5-5.4-4.5c-1.5-2-2.7-4.4-3.5-7.3
		c-0.8-2.9-1.2-6.2-1.2-10c0-3.4,0.4-6.5,1.3-9.4c0.9-2.9,2.2-5.4,3.9-7.5c1.7-2.1,3.8-3.8,6.2-5s5.2-1.8,8.2-1.8
		c2.8,0,5.1,0.5,7.1,1.4c2,0.9,3.7,2.2,5.2,3.8v-25.1h8.5V271H2717.1z M2701.7,264.8c2.5,0,4.8-0.6,6.7-1.7c1.9-1.2,3.7-2.8,5.3-4.9
		v-21.8c-1.4-1.9-3-3.3-4.7-4c-1.7-0.8-3.6-1.1-5.7-1.1c-4.1,0-7.3,1.5-9.5,4.4c-2.2,2.9-3.3,7.2-3.3,12.8c0,2.9,0.3,5.4,0.8,7.5
		c0.5,2.1,1.2,3.8,2.2,5.1c1,1.3,2.1,2.3,3.5,2.9C2698.3,264.5,2699.9,264.8,2701.7,264.8z"/>
	<path d="M2753.5,224.6c2.8,0,5.3,0.5,7.6,1.4c2.3,0.9,4.4,2.2,6.1,4s3,3.9,4,6.4s1.4,5.4,1.4,8.7
		c0,1.3-0.1,2.2-0.4,2.7c-0.3,0.5-0.8,0.7-1.6,0.7h-30.2c0.1,2.8,0.5,5.2,1.2,7.3c0.7,2.1,1.7,3.8,2.9,5.2s2.7,2.4,4.4,3.1
		c1.7,0.7,3.6,1,5.7,1c2,0,3.7-0.2,5.1-0.7c1.4-0.4,2.7-0.9,3.7-1.5s1.9-1,2.6-1.5s1.3-0.7,1.9-0.7c0.7,0,1.2,0.3,1.6,0.8l2.4,3.1
		c-1,1.3-2.3,2.3-3.6,3.2s-2.9,1.6-4.5,2.2c-1.6,0.6-3.2,1-4.9,1.3c-1.7,0.3-3.4,0.4-5,0.4c-3.1,0-6.1-0.5-8.8-1.6
		c-2.7-1.1-5-2.6-7-4.7s-3.5-4.6-4.6-7.7s-1.6-6.5-1.6-10.5c0-3.2,0.5-6.1,1.5-8.9c1-2.7,2.4-5.1,4.3-7.2c1.8-2,4.1-3.6,6.8-4.8
		C2747.2,225.2,2750.2,224.6,2753.5,224.6z M2753.7,230.9c-3.8,0-6.7,1.1-8.8,3.3c-2.1,2.2-3.5,5.2-4,9h24.3c0-1.8-0.3-3.5-0.8-5
		c-0.5-1.5-1.3-2.8-2.2-3.9c-1-1.1-2.2-1.9-3.6-2.5S2755.5,230.9,2753.7,230.9z"/>
	<path d="M1998.4,361h-12.1V296h12.1V361z"/>
	<path d="M2010.5,361v-46.2h6.8c1.4,0,2.4,0.7,2.8,2l0.8,3.6c0.9-1,1.9-1.8,2.9-2.6c1-0.8,2.1-1.5,3.3-2
		c1.2-0.6,2.4-1,3.7-1.3c1.3-0.3,2.8-0.5,4.3-0.5c2.5,0,4.8,0.4,6.7,1.3c1.9,0.9,3.6,2.1,4.9,3.6c1.3,1.5,2.3,3.4,3,5.5
		c0.7,2.1,1,4.5,1,7.1V361h-11.1v-29.4c0-2.8-0.6-5-1.9-6.5s-3.3-2.3-5.9-2.3c-1.9,0-3.7,0.4-5.4,1.3c-1.7,0.9-3.3,2.1-4.8,3.6V361
		H2010.5z"/>
	<path d="M2063.7,361v-37.8l-4-0.6c-0.9-0.2-1.6-0.5-2.1-0.9c-0.5-0.4-0.8-1.1-0.8-1.9v-4.5h6.9v-3.4
		c0-2.6,0.4-5,1.2-7.1c0.8-2.1,1.9-3.9,3.4-5.4c1.5-1.5,3.3-2.6,5.4-3.4s4.5-1.2,7.2-1.2c2.1,0,4.1,0.3,5.9,0.9l-0.2,5.6
		c0,0.4-0.2,0.8-0.4,1c-0.2,0.3-0.5,0.5-0.8,0.6s-0.7,0.2-1.2,0.3s-0.9,0.1-1.4,0.1c-1.3,0-2.5,0.1-3.5,0.4s-1.9,0.8-2.6,1.5
		c-0.7,0.7-1.3,1.6-1.6,2.8c-0.4,1.2-0.6,2.6-0.6,4.3v3.1h12v7.9h-11.7V361H2063.7z"/>
	<path d="M2112,314.1c3.4,0,6.5,0.6,9.3,1.7c2.8,1.1,5.2,2.7,7.2,4.7c2,2,3.5,4.5,4.6,7.5c1.1,2.9,1.6,6.2,1.6,9.9
		c0,3.7-0.5,7-1.6,9.9s-2.6,5.4-4.6,7.5s-4.4,3.7-7.2,4.8c-2.8,1.1-5.9,1.7-9.3,1.7c-3.5,0-6.6-0.6-9.4-1.7
		c-2.8-1.1-5.2-2.7-7.2-4.8c-2-2.1-3.5-4.6-4.6-7.5s-1.6-6.2-1.6-9.9c0-3.6,0.5-6.9,1.6-9.9c1.1-2.9,2.6-5.4,4.6-7.5
		c2-2,4.4-3.6,7.2-4.7C2105.4,314.7,2108.5,314.1,2112,314.1z M2112,353.1c3.8,0,6.7-1.3,8.5-3.9c1.8-2.6,2.8-6.4,2.8-11.3
		c0-5-0.9-8.8-2.8-11.4c-1.8-2.6-4.7-3.9-8.5-3.9c-3.9,0-6.8,1.3-8.7,3.9c-1.9,2.6-2.8,6.4-2.8,11.4c0,4.9,0.9,8.7,2.8,11.3
		C2105.2,351.8,2108.1,353.1,2112,353.1z"/>
	<path d="M2143.2,361v-46.2h6.5c1.1,0,1.9,0.2,2.4,0.6c0.4,0.4,0.7,1.1,0.9,2.2l0.6,5.2c1.5-2.8,3.2-4.9,5.2-6.5
		c2-1.6,4.3-2.4,7-2.4c2.1,0,3.8,0.5,5.1,1.4l-0.7,8.3c-0.2,0.5-0.4,0.9-0.7,1.1c-0.3,0.2-0.7,0.3-1.1,0.3c-0.5,0-1.1-0.1-2-0.2
		c-0.9-0.1-1.7-0.2-2.6-0.2c-1.2,0-2.3,0.2-3.3,0.5c-1,0.4-1.8,0.9-2.6,1.6c-0.8,0.7-1.4,1.5-2,2.5c-0.6,1-1.1,2.1-1.6,3.3V361
		H2143.2z"/>
	<path d="M2176.8,361v-46.2h6.8c1.4,0,2.4,0.7,2.8,2l0.7,3.4c0.8-0.9,1.7-1.7,2.5-2.5c0.9-0.8,1.8-1.4,2.8-1.9
		c1-0.5,2.1-1,3.2-1.3c1.2-0.3,2.4-0.5,3.8-0.5c2.9,0,5.3,0.8,7.2,2.4c1.9,1.6,3.3,3.7,4.2,6.3c0.7-1.5,1.6-2.8,2.7-3.9
		c1.1-1.1,2.3-2,3.6-2.7c1.3-0.7,2.7-1.2,4.1-1.5s2.9-0.5,4.4-0.5c2.5,0,4.8,0.4,6.8,1.2c2,0.8,3.6,1.9,5,3.4
		c1.3,1.5,2.4,3.3,3.1,5.5s1.1,4.6,1.1,7.4V361h-11.1v-29.4c0-2.9-0.6-5.2-1.9-6.6c-1.3-1.5-3.2-2.2-5.7-2.2c-1.1,0-2.2,0.2-3.2,0.6
		c-1,0.4-1.8,1-2.6,1.7c-0.7,0.7-1.3,1.7-1.7,2.8s-0.6,2.4-0.6,3.8V361h-11.2v-29.4c0-3.1-0.6-5.3-1.9-6.8s-3.1-2.1-5.5-2.1
		c-1.6,0-3.1,0.4-4.5,1.2c-1.4,0.8-2.7,1.9-3.9,3.3V361H2176.8z"/>
	<path d="M2282.4,361c-1,0-1.9-0.2-2.4-0.5c-0.6-0.3-1-1-1.3-1.9l-1-3.3c-1.2,1.1-2.3,2-3.4,2.8
		c-1.1,0.8-2.3,1.5-3.5,2c-1.2,0.5-2.5,0.9-3.8,1.2c-1.4,0.3-2.9,0.4-4.5,0.4c-2,0-3.8-0.3-5.4-0.8c-1.7-0.5-3.1-1.3-4.3-2.4
		c-1.2-1-2.1-2.4-2.8-3.9c-0.7-1.6-1-3.4-1-5.4c0-1.7,0.5-3.5,1.4-5.2s2.4-3.2,4.6-4.6c2.1-1.4,5-2.5,8.5-3.4
		c3.5-0.9,7.9-1.4,13.2-1.5v-2.7c0-3.1-0.7-5.4-2-6.9c-1.3-1.5-3.2-2.2-5.7-2.2c-1.8,0-3.3,0.2-4.5,0.6c-1.2,0.4-2.2,0.9-3.1,1.4
		c-0.9,0.5-1.7,1-2.5,1.4c-0.7,0.4-1.6,0.6-2.5,0.6c-0.8,0-1.4-0.2-2-0.6c-0.5-0.4-1-0.9-1.3-1.4l-2-3.6c5.3-4.9,11.7-7.3,19.2-7.3
		c2.7,0,5.1,0.4,7.2,1.3c2.1,0.9,3.9,2.1,5.4,3.7s2.6,3.5,3.4,5.6c0.8,2.2,1.1,4.6,1.1,7.2V361H2282.4z M2265.8,354.1
		c2.3,0,4.3-0.4,5.9-1.2s3.3-2.1,4.9-3.8v-7.8c-3.2,0.2-5.9,0.4-8.1,0.8c-2.2,0.4-3.9,0.9-5.2,1.6c-1.3,0.6-2.3,1.4-2.8,2.2
		s-0.9,1.8-0.9,2.7c0,2,0.6,3.3,1.7,4.2C2262.4,353.7,2263.9,354.1,2265.8,354.1z"/>
	<path d="M2311.2,371.5c0.4,0,0.9,0.1,1.4,0.3c0.5,0.2,1.2,0.3,2.2,0.3c1,0,1.7-0.2,2.2-0.6s0.7-0.8,0.7-1.4
		c0-0.9-0.5-1.5-1.6-1.9s-2.7-0.7-5-1.1l2-5.9c-2.5-0.4-4.9-1.1-7-2.4c-2.2-1.2-4-2.8-5.6-4.8s-2.8-4.4-3.8-7.1
		c-0.9-2.8-1.4-5.9-1.4-9.3c0-3.4,0.5-6.5,1.5-9.4c1-2.9,2.4-5.4,4.3-7.5c1.9-2.1,4.2-3.8,7-5c2.8-1.2,6-1.8,9.6-1.8
		c3.5,0,6.5,0.6,9.1,1.7c2.6,1.1,4.9,2.7,7,4.8l-2.9,4.1c-0.3,0.4-0.7,0.8-1,1c-0.3,0.2-0.8,0.4-1.4,0.4c-0.6,0-1.1-0.2-1.7-0.5
		c-0.5-0.3-1.2-0.7-1.9-1.2c-0.8-0.4-1.6-0.8-2.7-1.2c-1-0.3-2.3-0.5-3.8-0.5c-2,0-3.7,0.4-5.1,1.1c-1.5,0.7-2.7,1.7-3.7,3
		c-1,1.3-1.7,2.9-2.2,4.8c-0.5,1.9-0.7,4-0.7,6.4c0,2.5,0.3,4.7,0.8,6.6c0.5,1.9,1.3,3.5,2.3,4.8c1,1.3,2.2,2.3,3.6,3
		c1.4,0.7,3,1,4.8,1c1.8,0,3.2-0.2,4.3-0.7c1.1-0.4,2-0.9,2.8-1.4c0.8-0.5,1.4-1,2-1.4c0.6-0.4,1.2-0.7,1.9-0.7c0.9,0,1.6,0.3,2,1
		l3.2,4c-2,2.4-4.4,4.2-6.9,5.3s-5.2,1.8-7.9,2.1l-0.6,2.2c2.8,0.7,4.8,1.6,5.9,2.7s1.7,2.5,1.7,4c0,1-0.3,1.9-0.8,2.7
		c-0.5,0.8-1.3,1.5-2.2,2.1c-1,0.6-2.1,1-3.5,1.3c-1.3,0.3-2.8,0.5-4.4,0.5c-1.2,0-2.4-0.1-3.5-0.2c-1.1-0.2-2.1-0.4-3.2-0.7l1-3.5
		C2310.1,371.9,2310.5,371.5,2311.2,371.5z"/>
	<path d="M2360.9,314.1c3.4,0,6.5,0.6,9.3,1.7c2.8,1.1,5.2,2.7,7.2,4.7c2,2,3.5,4.5,4.6,7.5c1.1,2.9,1.6,6.2,1.6,9.9
		c0,3.7-0.5,7-1.6,9.9s-2.6,5.4-4.6,7.5s-4.4,3.7-7.2,4.8c-2.8,1.1-5.9,1.7-9.3,1.7c-3.5,0-6.6-0.6-9.4-1.7
		c-2.8-1.1-5.2-2.7-7.2-4.8c-2-2.1-3.5-4.6-4.6-7.5s-1.6-6.2-1.6-9.9c0-3.6,0.5-6.9,1.6-9.9c1.1-2.9,2.6-5.4,4.6-7.5
		c2-2,4.4-3.6,7.2-4.7C2354.4,314.7,2357.5,314.1,2360.9,314.1z M2365.8,299.9c0.9,0,1.6-0.2,2.1-0.7c0.5-0.5,0.8-1.4,0.8-2.7h6.8
		c0,1.7-0.2,3.2-0.7,4.6c-0.5,1.4-1.1,2.5-1.9,3.5c-0.8,1-1.8,1.7-2.9,2.2c-1.1,0.5-2.4,0.8-3.7,0.8c-1.1,0-2.1-0.2-3-0.6
		c-0.9-0.4-1.8-0.8-2.6-1.3c-0.8-0.4-1.6-0.9-2.3-1.3c-0.7-0.4-1.4-0.6-2-0.6c-0.9,0-1.6,0.3-2,0.8c-0.5,0.5-0.7,1.4-0.7,2.7h-6.9
		c0-1.7,0.2-3.2,0.7-4.6c0.5-1.4,1.1-2.5,2-3.5s1.8-1.7,2.9-2.3c1.1-0.5,2.3-0.8,3.7-0.8c1.1,0,2.1,0.2,3,0.6
		c0.9,0.4,1.8,0.8,2.6,1.3c0.8,0.5,1.6,0.9,2.2,1.3C2364.5,299.7,2365.2,299.9,2365.8,299.9z M2360.9,353.1c3.8,0,6.7-1.3,8.5-3.9
		c1.8-2.6,2.8-6.4,2.8-11.3c0-5-0.9-8.8-2.8-11.4c-1.8-2.6-4.7-3.9-8.5-3.9c-3.9,0-6.8,1.3-8.7,3.9c-1.9,2.6-2.8,6.4-2.8,11.4
		c0,4.9,0.9,8.7,2.8,11.3C2354.2,351.8,2357,353.1,2360.9,353.1z"/>
	<path d="M2411.9,314.1c2.9,0,5.6,0.5,8.1,1.4s4.6,2.3,6.3,4.1s3.2,4,4.2,6.6c1,2.6,1.5,5.6,1.5,8.9
		c0,1.7-0.2,2.8-0.5,3.4c-0.4,0.6-1,0.9-2.1,0.9h-28.6c0.2,2.4,0.6,4.4,1.3,6.1s1.5,3.2,2.6,4.3s2.4,2,3.8,2.5
		c1.5,0.6,3.1,0.8,4.9,0.8c1.8,0,3.4-0.2,4.7-0.6c1.3-0.4,2.4-0.9,3.4-1.4c1-0.5,1.8-1,2.6-1.4c0.7-0.4,1.4-0.6,2.1-0.6
		c0.9,0,1.6,0.3,2.1,1l3.2,4c-1.2,1.4-2.6,2.6-4.1,3.6s-3.1,1.8-4.8,2.3s-3.4,1-5.1,1.2c-1.7,0.2-3.4,0.4-5,0.4
		c-3.2,0-6.2-0.5-9-1.6c-2.8-1.1-5.2-2.6-7.2-4.7c-2-2.1-3.6-4.7-4.8-7.7s-1.8-6.6-1.8-10.7c0-3.2,0.5-6.1,1.5-8.9
		c1-2.8,2.5-5.2,4.4-7.2c1.9-2.1,4.2-3.7,7-4.9C2405.3,314.7,2408.4,314.1,2411.9,314.1z M2412.1,322.1c-3.2,0-5.8,0.9-7.6,2.7
		c-1.8,1.8-3,4.4-3.5,7.8h21c0-1.4-0.2-2.8-0.6-4.1c-0.4-1.3-1-2.4-1.8-3.4c-0.8-1-1.8-1.7-3.1-2.3
		C2415.2,322.4,2413.8,322.1,2412.1,322.1z"/>
	<path d="M2468.5,323.8c-0.3,0.5-0.6,0.8-0.9,1c-0.3,0.2-0.8,0.3-1.3,0.3c-0.5,0-1.1-0.1-1.7-0.4
		c-0.6-0.3-1.3-0.6-2.1-1c-0.8-0.4-1.7-0.7-2.8-1c-1-0.3-2.3-0.4-3.7-0.4c-2.2,0-3.9,0.5-5.2,1.4s-1.9,2.1-1.9,3.6
		c0,1,0.3,1.8,1,2.5c0.6,0.7,1.5,1.3,2.6,1.8c1.1,0.5,2.3,1,3.6,1.4c1.3,0.4,2.7,0.8,4.1,1.3c1.4,0.5,2.8,1,4.1,1.6
		c1.4,0.6,2.6,1.4,3.6,2.3c1.1,0.9,1.9,2.1,2.6,3.4c0.6,1.3,1,2.9,1,4.8c0,2.2-0.4,4.3-1.2,6.1c-0.8,1.9-2,3.5-3.5,4.9
		c-1.6,1.4-3.5,2.4-5.8,3.2c-2.3,0.8-4.9,1.1-7.9,1.1c-1.6,0-3.1-0.1-4.7-0.4s-3-0.7-4.4-1.2c-1.4-0.5-2.7-1.1-3.9-1.8
		c-1.2-0.7-2.2-1.4-3.1-2.2l2.6-4.2c0.3-0.5,0.7-0.9,1.2-1.2c0.4-0.3,1-0.4,1.7-0.4c0.7,0,1.3,0.2,2,0.6c0.6,0.4,1.3,0.8,2.1,1.3
		c0.8,0.5,1.8,0.9,2.9,1.3c1.1,0.4,2.5,0.6,4.2,0.6c1.3,0,2.5-0.2,3.4-0.5c0.9-0.3,1.7-0.7,2.3-1.2c0.6-0.5,1.1-1.1,1.3-1.8
		c0.3-0.7,0.4-1.4,0.4-2.1c0-1.1-0.3-2-1-2.7c-0.6-0.7-1.5-1.3-2.6-1.8c-1.1-0.5-2.3-1-3.6-1.4c-1.4-0.4-2.8-0.8-4.2-1.3
		c-1.4-0.5-2.8-1-4.2-1.7c-1.4-0.6-2.6-1.5-3.6-2.5c-1.1-1-1.9-2.2-2.6-3.6c-0.6-1.4-1-3.2-1-5.2c0-1.9,0.4-3.7,1.1-5.4
		c0.8-1.7,1.9-3.2,3.3-4.5s3.3-2.3,5.4-3.1c2.2-0.8,4.7-1.1,7.5-1.1c3.2,0,6.1,0.5,8.7,1.6c2.6,1.1,4.8,2.4,6.5,4.1L2468.5,323.8z"
		/>
	<path d="M2521.4,314.1c2.9,0,5.6,0.5,8.1,1.4s4.6,2.3,6.3,4.1s3.2,4,4.2,6.6c1,2.6,1.5,5.6,1.5,8.9
		c0,1.7-0.2,2.8-0.5,3.4c-0.4,0.6-1,0.9-2.1,0.9h-28.6c0.2,2.4,0.6,4.4,1.3,6.1s1.5,3.2,2.6,4.3s2.4,2,3.8,2.5
		c1.5,0.6,3.1,0.8,4.9,0.8c1.8,0,3.4-0.2,4.7-0.6c1.3-0.4,2.4-0.9,3.4-1.4c1-0.5,1.8-1,2.6-1.4c0.7-0.4,1.4-0.6,2.1-0.6
		c0.9,0,1.6,0.3,2.1,1l3.2,4c-1.2,1.4-2.6,2.6-4.1,3.6s-3.1,1.8-4.8,2.3s-3.4,1-5.1,1.2c-1.7,0.2-3.4,0.4-5,0.4
		c-3.2,0-6.2-0.5-9-1.6c-2.8-1.1-5.2-2.6-7.2-4.7c-2-2.1-3.6-4.7-4.8-7.7s-1.8-6.6-1.8-10.7c0-3.2,0.5-6.1,1.5-8.9
		c1-2.8,2.5-5.2,4.4-7.2c1.9-2.1,4.2-3.7,7-4.9C2514.8,314.7,2517.9,314.1,2521.4,314.1z M2521.6,322.1c-3.2,0-5.8,0.9-7.6,2.7
		c-1.8,1.8-3,4.4-3.5,7.8h21c0-1.4-0.2-2.8-0.6-4.1c-0.4-1.3-1-2.4-1.8-3.4c-0.8-1-1.8-1.7-3.1-2.3
		C2524.7,322.4,2523.2,322.1,2521.6,322.1z"/>
	<path d="M1998.4,451h-12.1V386h12.1V451z"/>
	<path d="M2010.5,451v-46.2h6.8c1.4,0,2.4,0.7,2.8,2l0.8,3.6c0.9-1,1.9-1.8,2.9-2.6c1-0.8,2.1-1.5,3.3-2
		c1.2-0.6,2.4-1,3.7-1.3c1.3-0.3,2.8-0.5,4.3-0.5c2.5,0,4.8,0.4,6.7,1.3c1.9,0.9,3.6,2.1,4.9,3.6c1.3,1.5,2.3,3.4,3,5.5
		c0.7,2.1,1,4.5,1,7.1V451h-11.1v-29.4c0-2.8-0.6-5-1.9-6.5s-3.3-2.3-5.9-2.3c-1.9,0-3.7,0.4-5.4,1.3c-1.7,0.9-3.3,2.1-4.8,3.6V451
		H2010.5z"/>
	<path d="M2094.6,451c-1.5,0-2.4-0.7-2.8-2l-0.9-4.5c-1,1.1-2,2.1-3,2.9c-1.1,0.9-2.2,1.6-3.4,2.2
		c-1.2,0.6-2.5,1.1-3.9,1.5c-1.4,0.3-2.9,0.5-4.5,0.5c-2.5,0-4.8-0.5-6.9-1.6c-2.1-1-3.9-2.6-5.4-4.6c-1.5-2-2.7-4.5-3.5-7.4
		c-0.8-2.9-1.2-6.3-1.2-10.1c0-3.4,0.5-6.6,1.4-9.5c0.9-2.9,2.3-5.5,4-7.6c1.7-2.2,3.8-3.8,6.3-5.1c2.4-1.2,5.2-1.8,8.2-1.8
		c2.6,0,4.8,0.4,6.6,1.2c1.8,0.8,3.5,1.9,4.9,3.3v-24.4h11.1V451H2094.6z M2079.7,442.9c2.3,0,4.3-0.5,5.9-1.4
		c1.6-1,3.2-2.3,4.6-4.1v-20.7c-1.3-1.5-2.6-2.6-4.1-3.2c-1.5-0.6-3.1-0.9-4.8-0.9c-1.7,0-3.2,0.3-4.5,0.9c-1.3,0.6-2.5,1.6-3.5,2.9
		s-1.7,2.9-2.2,4.9s-0.8,4.3-0.8,7c0,2.7,0.2,5,0.7,6.9c0.4,1.9,1.1,3.4,1.9,4.6c0.8,1.2,1.8,2,3,2.6S2078.3,442.9,2079.7,442.9z"/>
	<path d="M2125.4,391.4c0,1-0.2,1.9-0.6,2.7c-0.4,0.8-0.9,1.6-1.6,2.2c-0.6,0.6-1.4,1.1-2.3,1.5
		c-0.9,0.4-1.8,0.6-2.8,0.6c-1,0-1.9-0.2-2.7-0.6c-0.9-0.4-1.6-0.9-2.2-1.5s-1.1-1.4-1.5-2.2c-0.4-0.8-0.6-1.7-0.6-2.7
		c0-1,0.2-1.9,0.6-2.8c0.4-0.9,0.9-1.6,1.5-2.2c0.6-0.6,1.4-1.1,2.2-1.5c0.9-0.4,1.8-0.6,2.7-0.6c1,0,1.9,0.2,2.8,0.6
		s1.6,0.9,2.3,1.5c0.6,0.6,1.2,1.4,1.6,2.2C2125.2,389.5,2125.4,390.4,2125.4,391.4z M2123.8,404.8V451h-11.2v-46.2H2123.8z"/>
	<path d="M2168.3,414.6c-0.3,0.4-0.7,0.8-1,1c-0.3,0.2-0.8,0.4-1.4,0.4c-0.6,0-1.1-0.2-1.7-0.5
		c-0.5-0.3-1.2-0.7-1.9-1.2c-0.8-0.4-1.6-0.8-2.7-1.2c-1-0.3-2.3-0.5-3.8-0.5c-2,0-3.7,0.4-5.1,1.1c-1.5,0.7-2.7,1.7-3.7,3
		c-1,1.3-1.7,2.9-2.2,4.8c-0.5,1.9-0.7,4-0.7,6.4c0,2.5,0.3,4.7,0.8,6.6c0.5,1.9,1.3,3.5,2.3,4.8c1,1.3,2.2,2.3,3.6,3
		c1.4,0.7,3,1,4.8,1c1.8,0,3.2-0.2,4.3-0.7c1.1-0.4,2-0.9,2.8-1.4c0.8-0.5,1.4-1,2-1.4c0.6-0.4,1.2-0.7,1.9-0.7c0.9,0,1.6,0.3,2,1
		l3.2,4c-1.2,1.4-2.6,2.6-4,3.6c-1.4,1-2.9,1.8-4.5,2.3s-3.1,1-4.8,1.2c-1.6,0.2-3.3,0.4-4.9,0.4c-2.9,0-5.5-0.5-8.1-1.6
		s-4.7-2.6-6.6-4.7c-1.9-2-3.4-4.5-4.5-7.5c-1.1-3-1.6-6.3-1.6-10.1c0-3.4,0.5-6.5,1.5-9.4c1-2.9,2.4-5.4,4.3-7.5
		c1.9-2.1,4.2-3.8,7-5c2.8-1.2,6-1.8,9.6-1.8c3.5,0,6.5,0.6,9.1,1.7c2.6,1.1,4.9,2.7,7,4.8L2168.3,414.6z"/>
	<path d="M2208.8,451c-1,0-1.9-0.2-2.4-0.5c-0.6-0.3-1-1-1.3-1.9l-1-3.3c-1.2,1.1-2.3,2-3.4,2.8
		c-1.1,0.8-2.3,1.5-3.5,2c-1.2,0.5-2.5,0.9-3.8,1.2c-1.4,0.3-2.9,0.4-4.5,0.4c-2,0-3.8-0.3-5.4-0.8c-1.7-0.5-3.1-1.3-4.3-2.4
		c-1.2-1-2.1-2.4-2.8-3.9c-0.7-1.6-1-3.4-1-5.4c0-1.7,0.5-3.5,1.4-5.2s2.4-3.2,4.6-4.6c2.1-1.4,5-2.5,8.5-3.4
		c3.5-0.9,7.9-1.4,13.2-1.5v-2.7c0-3.1-0.7-5.4-2-6.9c-1.3-1.5-3.2-2.2-5.7-2.2c-1.8,0-3.3,0.2-4.5,0.6c-1.2,0.4-2.2,0.9-3.1,1.4
		c-0.9,0.5-1.7,1-2.5,1.4c-0.7,0.4-1.6,0.6-2.5,0.6c-0.8,0-1.4-0.2-2-0.6c-0.5-0.4-1-0.9-1.3-1.4l-2-3.6c5.3-4.9,11.7-7.3,19.2-7.3
		c2.7,0,5.1,0.4,7.2,1.3c2.1,0.9,3.9,2.1,5.4,3.7s2.6,3.5,3.4,5.6c0.8,2.2,1.1,4.6,1.1,7.2V451H2208.8z M2192.2,444.1
		c2.3,0,4.3-0.4,5.9-1.2s3.3-2.1,4.9-3.8v-7.8c-3.2,0.2-5.9,0.4-8.1,0.8c-2.2,0.4-3.9,0.9-5.2,1.6c-1.3,0.6-2.3,1.4-2.8,2.2
		s-0.9,1.8-0.9,2.7c0,2,0.6,3.3,1.7,4.2C2188.8,443.7,2190.3,444.1,2192.2,444.1z"/>
	<path d="M2257.5,451c-1.5,0-2.4-0.7-2.8-2l-0.9-4.5c-1,1.1-2,2.1-3,2.9c-1.1,0.9-2.2,1.6-3.4,2.2
		c-1.2,0.6-2.5,1.1-3.9,1.5c-1.4,0.3-2.9,0.5-4.5,0.5c-2.5,0-4.8-0.5-6.9-1.6c-2.1-1-3.9-2.6-5.4-4.6c-1.5-2-2.7-4.5-3.5-7.4
		c-0.8-2.9-1.2-6.3-1.2-10.1c0-3.4,0.5-6.6,1.4-9.5c0.9-2.9,2.3-5.5,4-7.6c1.7-2.2,3.8-3.8,6.3-5.1c2.4-1.2,5.2-1.8,8.2-1.8
		c2.6,0,4.8,0.4,6.6,1.2c1.8,0.8,3.5,1.9,4.9,3.3v-24.4h11.1V451H2257.5z M2242.7,442.9c2.3,0,4.3-0.5,5.9-1.4
		c1.6-1,3.2-2.3,4.6-4.1v-20.7c-1.3-1.5-2.6-2.6-4.1-3.2c-1.5-0.6-3.1-0.9-4.8-0.9c-1.7,0-3.2,0.3-4.5,0.9c-1.3,0.6-2.5,1.6-3.5,2.9
		s-1.7,2.9-2.2,4.9s-0.8,4.3-0.8,7c0,2.7,0.2,5,0.7,6.9c0.4,1.9,1.1,3.4,1.9,4.6c0.8,1.2,1.8,2,3,2.6S2241.3,442.9,2242.7,442.9z"/>
	<path d="M2295.7,404.1c3.4,0,6.5,0.6,9.3,1.7c2.8,1.1,5.2,2.7,7.2,4.7c2,2,3.5,4.5,4.6,7.5c1.1,2.9,1.6,6.2,1.6,9.9
		c0,3.7-0.5,7-1.6,9.9s-2.6,5.4-4.6,7.5s-4.4,3.7-7.2,4.8c-2.8,1.1-5.9,1.7-9.3,1.7c-3.5,0-6.6-0.6-9.4-1.7
		c-2.8-1.1-5.2-2.7-7.2-4.8c-2-2.1-3.5-4.6-4.6-7.5s-1.6-6.2-1.6-9.9c0-3.6,0.5-6.9,1.6-9.9c1.1-2.9,2.6-5.4,4.6-7.5
		c2-2,4.4-3.6,7.2-4.7C2289.2,404.7,2292.3,404.1,2295.7,404.1z M2295.7,443.1c3.8,0,6.7-1.3,8.5-3.9c1.8-2.6,2.8-6.4,2.8-11.3
		c0-5-0.9-8.8-2.8-11.4c-1.8-2.6-4.7-3.9-8.5-3.9c-3.9,0-6.8,1.3-8.7,3.9c-1.9,2.6-2.8,6.4-2.8,11.4c0,4.9,0.9,8.7,2.8,11.3
		C2289,441.8,2291.8,443.1,2295.7,443.1z"/>
	<path d="M2327,451v-46.2h6.5c1.1,0,1.9,0.2,2.4,0.6c0.4,0.4,0.7,1.1,0.9,2.2l0.6,5.2c1.5-2.8,3.2-4.9,5.2-6.5
		c2-1.6,4.3-2.4,7-2.4c2.1,0,3.8,0.5,5.1,1.4l-0.7,8.3c-0.2,0.5-0.4,0.9-0.7,1.1c-0.3,0.2-0.7,0.3-1.1,0.3c-0.5,0-1.1-0.1-2-0.2
		c-0.9-0.1-1.7-0.2-2.6-0.2c-1.2,0-2.3,0.2-3.3,0.5c-1,0.4-1.8,0.9-2.6,1.6c-0.8,0.7-1.4,1.5-2,2.5c-0.6,1-1.1,2.1-1.6,3.3V451H2327
		z"/>
	<path d="M2378.9,404.1c2.9,0,5.6,0.5,8.1,1.4s4.6,2.3,6.3,4.1s3.2,4,4.2,6.6c1,2.6,1.5,5.6,1.5,8.9
		c0,1.7-0.2,2.8-0.5,3.4c-0.4,0.6-1,0.9-2.1,0.9h-28.6c0.2,2.4,0.6,4.4,1.3,6.1s1.5,3.2,2.6,4.3s2.4,2,3.8,2.5
		c1.5,0.6,3.1,0.8,4.9,0.8c1.8,0,3.4-0.2,4.7-0.6c1.3-0.4,2.4-0.9,3.4-1.4c1-0.5,1.8-1,2.6-1.4c0.7-0.4,1.4-0.6,2.1-0.6
		c0.9,0,1.6,0.3,2.1,1l3.2,4c-1.2,1.4-2.6,2.6-4.1,3.6s-3.1,1.8-4.8,2.3s-3.4,1-5.1,1.2c-1.7,0.2-3.4,0.4-5,0.4
		c-3.2,0-6.2-0.5-9-1.6c-2.8-1.1-5.2-2.6-7.2-4.7c-2-2.1-3.6-4.7-4.8-7.7s-1.8-6.6-1.8-10.7c0-3.2,0.5-6.1,1.5-8.9
		c1-2.8,2.5-5.2,4.4-7.2c1.9-2.1,4.2-3.7,7-4.9C2372.4,404.7,2375.5,404.1,2378.9,404.1z M2379.2,412.1c-3.2,0-5.8,0.9-7.6,2.7
		c-1.8,1.8-3,4.4-3.5,7.8h21c0-1.4-0.2-2.8-0.6-4.1c-0.4-1.3-1-2.4-1.8-3.4c-0.8-1-1.8-1.7-3.1-2.3
		C2382.3,412.4,2380.8,412.1,2379.2,412.1z"/>
	<path d="M2435.5,413.8c-0.3,0.5-0.6,0.8-0.9,1c-0.3,0.2-0.8,0.3-1.3,0.3c-0.5,0-1.1-0.1-1.7-0.4
		c-0.6-0.3-1.3-0.6-2.1-1c-0.8-0.4-1.7-0.7-2.8-1c-1-0.3-2.3-0.4-3.7-0.4c-2.2,0-3.9,0.5-5.2,1.4s-1.9,2.1-1.9,3.6
		c0,1,0.3,1.8,1,2.5c0.6,0.7,1.5,1.3,2.6,1.8c1.1,0.5,2.3,1,3.6,1.4c1.3,0.4,2.7,0.8,4.1,1.3c1.4,0.5,2.8,1,4.1,1.6
		c1.4,0.6,2.6,1.4,3.6,2.3c1.1,0.9,1.9,2.1,2.6,3.4c0.6,1.3,1,2.9,1,4.8c0,2.2-0.4,4.3-1.2,6.1c-0.8,1.9-2,3.5-3.5,4.9
		c-1.6,1.4-3.5,2.4-5.8,3.2c-2.3,0.8-4.9,1.1-7.9,1.1c-1.6,0-3.1-0.1-4.7-0.4s-3-0.7-4.4-1.2c-1.4-0.5-2.7-1.1-3.9-1.8
		c-1.2-0.7-2.2-1.4-3.1-2.2l2.6-4.2c0.3-0.5,0.7-0.9,1.2-1.2c0.4-0.3,1-0.4,1.7-0.4c0.7,0,1.3,0.2,2,0.6c0.6,0.4,1.3,0.8,2.1,1.3
		c0.8,0.5,1.8,0.9,2.9,1.3c1.1,0.4,2.5,0.6,4.2,0.6c1.3,0,2.5-0.2,3.4-0.5c0.9-0.3,1.7-0.7,2.3-1.2c0.6-0.5,1.1-1.1,1.3-1.8
		c0.3-0.7,0.4-1.4,0.4-2.1c0-1.1-0.3-2-1-2.7c-0.6-0.7-1.5-1.3-2.6-1.8c-1.1-0.5-2.3-1-3.6-1.4c-1.4-0.4-2.8-0.8-4.2-1.3
		c-1.4-0.5-2.8-1-4.2-1.7c-1.4-0.6-2.6-1.5-3.6-2.5c-1.1-1-1.9-2.2-2.6-3.6c-0.6-1.4-1-3.2-1-5.2c0-1.9,0.4-3.7,1.1-5.4
		c0.8-1.7,1.9-3.2,3.3-4.5s3.3-2.3,5.4-3.1c2.2-0.8,4.7-1.1,7.5-1.1c3.2,0,6.1,0.5,8.7,1.6c2.6,1.1,4.8,2.4,6.5,4.1L2435.5,413.8z"
		/>
	<path d="M2515.2,435.7c0.7,0,1.2,0.3,1.8,0.8l4.8,5.2c-2.6,3.3-5.9,5.8-9.7,7.5c-3.9,1.7-8.5,2.6-13.9,2.6
		c-4.8,0-9.2-0.8-13-2.5c-3.9-1.7-7.1-3.9-9.9-6.9c-2.7-2.9-4.8-6.5-6.3-10.5c-1.5-4.1-2.2-8.5-2.2-13.4c0-4.9,0.8-9.4,2.3-13.4
		c1.6-4.1,3.8-7.6,6.6-10.5c2.8-2.9,6.2-5.2,10.1-6.9c3.9-1.6,8.3-2.5,13-2.5c4.7,0,8.9,0.8,12.6,2.3c3.7,1.6,6.8,3.6,9.4,6.1
		l-4,5.6c-0.2,0.4-0.5,0.7-0.9,0.9c-0.4,0.3-0.9,0.4-1.6,0.4c-0.5,0-0.9-0.1-1.4-0.4c-0.5-0.3-1-0.6-1.6-0.9c-0.6-0.4-1.2-0.8-2-1.2
		c-0.8-0.4-1.6-0.9-2.6-1.2c-1-0.4-2.1-0.7-3.4-0.9c-1.3-0.3-2.8-0.4-4.5-0.4c-2.9,0-5.6,0.5-8,1.6c-2.4,1-4.5,2.5-6.2,4.5
		c-1.7,2-3.1,4.4-4,7.2c-1,2.8-1.4,6.1-1.4,9.7c0,3.7,0.5,6.9,1.6,9.8c1,2.9,2.4,5.2,4.2,7.2s3.9,3.4,6.3,4.5c2.4,1,5,1.6,7.7,1.6
		c1.6,0,3.1-0.1,4.5-0.3s2.6-0.5,3.7-0.9c1.1-0.4,2.2-0.9,3.2-1.5s2-1.4,3-2.3c0.3-0.3,0.6-0.5,0.9-0.7
		C2514.5,435.8,2514.8,435.7,2515.2,435.7z"/>
	<path d="M2538.3,404.8v29.3c0,2.8,0.7,5,2,6.5c1.3,1.5,3.3,2.3,5.9,2.3c1.9,0,3.7-0.4,5.4-1.3
		c1.7-0.9,3.3-2,4.8-3.5v-33.4h11.1V451h-6.8c-1.5,0-2.4-0.7-2.8-2l-0.8-3.7c-1,1-2,1.8-3,2.6c-1,0.8-2.1,1.5-3.3,2
		c-1.2,0.6-2.4,1-3.7,1.3s-2.8,0.5-4.3,0.5c-2.5,0-4.7-0.4-6.7-1.3c-1.9-0.9-3.6-2.1-4.9-3.6s-2.3-3.4-3-5.6c-0.7-2.1-1-4.5-1-7.1
		v-29.3H2538.3z"/>
	<path d="M2589.7,384.2V451h-11.1v-66.9H2589.7z"/>
	<path d="M2616.2,451.7c-4,0-7.1-1.1-9.2-3.4c-2.1-2.3-3.2-5.4-3.2-9.4v-25.8h-4.7c-0.6,0-1.1-0.2-1.5-0.6
		c-0.4-0.4-0.6-1-0.6-1.8v-4.4l7.4-1.2l2.3-12.6c0.1-0.6,0.4-1.1,0.9-1.4c0.4-0.3,1-0.5,1.6-0.5h5.8v14.5h12.3v7.9h-12.3v25
		c0,1.4,0.4,2.6,1.1,3.4c0.7,0.8,1.7,1.2,2.9,1.2c0.7,0,1.3-0.1,1.7-0.2c0.5-0.2,0.9-0.3,1.2-0.5c0.3-0.2,0.7-0.4,0.9-0.5
		c0.3-0.2,0.5-0.2,0.8-0.2c0.3,0,0.6,0.1,0.8,0.2c0.2,0.2,0.4,0.4,0.7,0.7l3.3,5.4c-1.6,1.4-3.5,2.4-5.6,3.1
		C2620.6,451.4,2618.4,451.7,2616.2,451.7z"/>
	<path d="M2644.9,404.8v29.3c0,2.8,0.7,5,2,6.5c1.3,1.5,3.3,2.3,5.9,2.3c1.9,0,3.7-0.4,5.4-1.3
		c1.7-0.9,3.3-2,4.8-3.5v-33.4h11.1V451h-6.8c-1.5,0-2.4-0.7-2.8-2l-0.8-3.7c-1,1-2,1.8-3,2.6c-1,0.8-2.1,1.5-3.3,2
		c-1.2,0.6-2.4,1-3.7,1.3s-2.8,0.5-4.3,0.5c-2.5,0-4.7-0.4-6.7-1.3c-1.9-0.9-3.6-2.1-4.9-3.6s-2.3-3.4-3-5.6c-0.7-2.1-1-4.5-1-7.1
		v-29.3H2644.9z"/>
	<path d="M2685,451v-46.2h6.5c1.1,0,1.9,0.2,2.4,0.6c0.4,0.4,0.7,1.1,0.9,2.2l0.6,5.2c1.5-2.8,3.2-4.9,5.2-6.5
		c2-1.6,4.3-2.4,7-2.4c2.1,0,3.8,0.5,5.1,1.4l-0.7,8.3c-0.2,0.5-0.4,0.9-0.7,1.1c-0.3,0.2-0.7,0.3-1.1,0.3c-0.5,0-1.1-0.1-2-0.2
		c-0.9-0.1-1.7-0.2-2.6-0.2c-1.2,0-2.3,0.2-3.3,0.5c-1,0.4-1.8,0.9-2.6,1.6c-0.8,0.7-1.4,1.5-2,2.5c-0.6,1-1.1,2.1-1.6,3.3V451H2685
		z"/>
	<path d="M2748.2,451c-1,0-1.9-0.2-2.4-0.5c-0.6-0.3-1-1-1.3-1.9l-1-3.3c-1.2,1.1-2.3,2-3.4,2.8
		c-1.1,0.8-2.3,1.5-3.5,2c-1.2,0.5-2.5,0.9-3.8,1.2c-1.4,0.3-2.9,0.4-4.5,0.4c-2,0-3.8-0.3-5.4-0.8c-1.7-0.5-3.1-1.3-4.3-2.4
		c-1.2-1-2.1-2.4-2.8-3.9c-0.7-1.6-1-3.4-1-5.4c0-1.7,0.5-3.5,1.4-5.2s2.4-3.2,4.6-4.6c2.1-1.4,5-2.5,8.5-3.4
		c3.5-0.9,7.9-1.4,13.2-1.5v-2.7c0-3.1-0.7-5.4-2-6.9c-1.3-1.5-3.2-2.2-5.7-2.2c-1.8,0-3.3,0.2-4.5,0.6c-1.2,0.4-2.2,0.9-3.1,1.4
		c-0.9,0.5-1.7,1-2.5,1.4c-0.7,0.4-1.6,0.6-2.5,0.6c-0.8,0-1.4-0.2-2-0.6c-0.5-0.4-1-0.9-1.3-1.4l-2-3.6c5.3-4.9,11.7-7.3,19.2-7.3
		c2.7,0,5.1,0.4,7.2,1.3c2.1,0.9,3.9,2.1,5.4,3.7s2.6,3.5,3.4,5.6c0.8,2.2,1.1,4.6,1.1,7.2V451H2748.2z M2731.6,444.1
		c2.3,0,4.3-0.4,5.9-1.2s3.3-2.1,4.9-3.8v-7.8c-3.2,0.2-5.9,0.4-8.1,0.8c-2.2,0.4-3.9,0.9-5.2,1.6c-1.3,0.6-2.3,1.4-2.8,2.2
		s-0.9,1.8-0.9,2.7c0,2,0.6,3.3,1.7,4.2C2728.2,443.7,2729.7,444.1,2731.6,444.1z"/>
	<path d="M2776.7,391.4c0,1-0.2,1.9-0.6,2.7c-0.4,0.8-0.9,1.6-1.6,2.2c-0.6,0.6-1.4,1.1-2.3,1.5
		c-0.9,0.4-1.8,0.6-2.8,0.6c-1,0-1.9-0.2-2.7-0.6c-0.9-0.4-1.6-0.9-2.2-1.5s-1.1-1.4-1.5-2.2c-0.4-0.8-0.6-1.7-0.6-2.7
		c0-1,0.2-1.9,0.6-2.8c0.4-0.9,0.9-1.6,1.5-2.2c0.6-0.6,1.4-1.1,2.2-1.5c0.9-0.4,1.8-0.6,2.7-0.6c1,0,1.9,0.2,2.8,0.6
		s1.6,0.9,2.3,1.5c0.6,0.6,1.2,1.4,1.6,2.2C2776.5,389.5,2776.7,390.4,2776.7,391.4z M2775.2,404.8V451h-11.2v-46.2H2775.2z"/>
	<path d="M2814.7,413.8c-0.3,0.5-0.6,0.8-0.9,1c-0.3,0.2-0.8,0.3-1.3,0.3c-0.5,0-1.1-0.1-1.7-0.4
		c-0.6-0.3-1.3-0.6-2.1-1c-0.8-0.4-1.7-0.7-2.8-1c-1-0.3-2.3-0.4-3.7-0.4c-2.2,0-3.9,0.5-5.2,1.4s-1.9,2.1-1.9,3.6
		c0,1,0.3,1.8,1,2.5c0.6,0.7,1.5,1.3,2.6,1.8c1.1,0.5,2.3,1,3.6,1.4c1.3,0.4,2.7,0.8,4.1,1.3c1.4,0.5,2.8,1,4.1,1.6
		c1.4,0.6,2.6,1.4,3.6,2.3c1.1,0.9,1.9,2.1,2.6,3.4c0.6,1.3,1,2.9,1,4.8c0,2.2-0.4,4.3-1.2,6.1c-0.8,1.9-2,3.5-3.5,4.9
		c-1.6,1.4-3.5,2.4-5.8,3.2c-2.3,0.8-4.9,1.1-7.9,1.1c-1.6,0-3.1-0.1-4.7-0.4s-3-0.7-4.4-1.2c-1.4-0.5-2.7-1.1-3.9-1.8
		c-1.2-0.7-2.2-1.4-3.1-2.2l2.6-4.2c0.3-0.5,0.7-0.9,1.2-1.2c0.4-0.3,1-0.4,1.7-0.4c0.7,0,1.3,0.2,2,0.6c0.6,0.4,1.3,0.8,2.1,1.3
		c0.8,0.5,1.8,0.9,2.9,1.3c1.1,0.4,2.5,0.6,4.2,0.6c1.3,0,2.5-0.2,3.4-0.5c0.9-0.3,1.7-0.7,2.3-1.2c0.6-0.5,1.1-1.1,1.3-1.8
		c0.3-0.7,0.4-1.4,0.4-2.1c0-1.1-0.3-2-1-2.7c-0.6-0.7-1.5-1.3-2.6-1.8c-1.1-0.5-2.3-1-3.6-1.4c-1.4-0.4-2.8-0.8-4.2-1.3
		c-1.4-0.5-2.8-1-4.2-1.7c-1.4-0.6-2.6-1.5-3.6-2.5c-1.1-1-1.9-2.2-2.6-3.6c-0.6-1.4-1-3.2-1-5.2c0-1.9,0.4-3.7,1.1-5.4
		c0.8-1.7,1.9-3.2,3.3-4.5s3.3-2.3,5.4-3.1c2.2-0.8,4.7-1.1,7.5-1.1c3.2,0,6.1,0.5,8.7,1.6c2.6,1.1,4.8,2.4,6.5,4.1L2814.7,413.8z"
		/>
</g>

<g class="heading">
	<path d="M1028,249.6c-1.9,3.1-3.8,5.3-5.7,6.7c-1.9,1.4-4.4,2.1-7.5,2.1c-2.9,0-6.1-1-9.5-3.1
		c-3.4-2.1-7.4-4.3-11.9-6.7c-4.5-2.4-9.7-4.6-15.6-6.7c-5.9-2.1-12.7-3.1-20.6-3.1c-13.9,0-24.3,3.1-31.2,9.3
		c-6.9,6.2-10.4,14.3-10.4,24.3c0,6.4,1.9,11.7,5.7,15.9c3.8,4.2,8.8,7.8,15,10.9c6.2,3.1,13.2,5.8,21.1,8.2
		c7.9,2.4,15.9,5,24.2,7.9c8.3,2.9,16.3,6.2,24.2,10.1c7.9,3.9,14.9,8.7,21.1,14.6c6.2,5.9,11.2,13,15,21.5
		c3.8,8.5,5.7,18.8,5.7,30.9c0,13.2-2.3,25.6-6.9,37.1c-4.6,11.5-11.2,21.6-19.9,30.2c-8.7,8.6-19.4,15.4-32.1,20.3
		c-12.7,4.9-27.2,7.4-43.3,7.4c-9.2,0-18.4-0.9-27.5-2.8c-9.1-1.9-17.9-4.5-26.4-7.8c-8.5-3.3-16.4-7.3-23.9-12
		c-7.5-4.7-14-9.9-19.6-15.6l17.6-28.4c1.5-2.1,3.4-3.9,5.8-5.3c2.4-1.4,4.9-2.1,7.6-2.1c3.6,0,7.4,1.3,11.4,4
		c4,2.7,8.6,5.6,13.8,8.8s11.2,6.1,18.1,8.8c6.9,2.7,15.1,4,24.7,4c14,0,24.8-3.2,32.5-9.6c7.7-6.4,11.5-15.9,11.5-28.6
		c0-7.3-1.9-13.3-5.7-17.8c-3.8-4.5-8.8-8.3-14.9-11.4c-6.1-3.1-13.1-5.7-21-7.9c-7.9-2.2-15.9-4.6-24.2-7.3
		c-8.3-2.7-16.3-5.9-24.2-9.6c-7.9-3.7-14.9-8.7-21-14.8c-6.1-6.1-11.1-13.7-14.9-22.8c-3.8-9.1-5.7-20.3-5.7-33.8
		c0-10.8,2.1-21.3,6.4-31.4c4.3-10.1,10.5-19.1,18.8-27c8.3-7.9,18.4-14.2,30.5-19c12.1-4.8,25.9-7.2,41.5-7.2
		c17.5,0,33.6,2.7,48.5,8.1c14.9,5.4,27.4,12.9,37.7,22.5L1028,249.6z"/>
	<path d="M1129.3,194.3c1.8,0.2,3.4,0.7,4.9,1.4c1.5,0.7,2.9,1.7,4.2,2.9c1.3,1.2,2.8,2.8,4.4,4.8l145.6,185
		c-0.5-5.1-0.9-10-1.2-14.8c-0.3-4.8-0.4-9.3-0.4-13.6V194h53v290.2h-31c-4.7,0-8.6-0.8-11.8-2.3c-3.2-1.5-6.3-4.2-9.4-7.9
		L1143,290.2c0.4,4.7,0.7,9.2,0.9,13.7c0.2,4.5,0.3,8.6,0.3,12.5v167.8h-53V194h31.6C1125.3,194,1127.5,194.1,1129.3,194.3z"/>
	<path d="M1461,484.2h-60.4V194h60.4V484.2z"/>
	<path d="M1582.2,484.2h-60.4V194h60.4V484.2z"/>
	<path d="M1840.6,412.8c3.3,0,6.1,1.2,8.4,3.6l23.8,25.4c-11.7,14.9-26.3,26.3-43.7,34
		c-17.4,7.7-38.1,11.6-62.1,11.6c-21.7,0-41.3-3.7-58.6-11.1c-17.3-7.4-32.1-17.7-44.2-30.9c-12.1-13.2-21.5-28.9-28-47
		c-6.5-18.1-9.8-37.9-9.8-59.4c0-14.4,1.6-28.1,4.7-41.1c3.1-13,7.7-25,13.7-35.9c6-10.9,13.2-20.8,21.7-29.6
		c8.5-8.8,18-16.3,28.7-22.5c10.7-6.2,22.3-10.9,34.9-14.2c12.6-3.3,26-4.9,40.3-4.9c10.7,0,20.8,0.9,30.3,2.8
		c9.5,1.9,18.4,4.5,26.7,7.8c8.3,3.3,15.9,7.4,22.9,12.1c7,4.7,13.3,9.9,18.9,15.5l-20.2,27.6c-1.2,1.7-2.7,3.3-4.6,4.6
		c-1.9,1.3-4.4,2-7.6,2s-6.4-1.1-9.7-3.4c-3.3-2.3-7.3-4.8-12-7.6c-4.7-2.8-10.7-5.3-17.8-7.6c-7.1-2.3-16.2-3.4-27.1-3.4
		c-12.1,0-23.3,2.2-33.4,6.6c-10.1,4.4-18.8,10.8-26.1,19.1c-7.3,8.3-12.9,18.6-16.9,30.7c-4,12.1-6,25.9-6,41.4
		c0,15.6,2.2,29.5,6.5,41.7c4.3,12.2,10.3,22.5,17.8,30.9c7.5,8.4,16.3,14.8,26.4,19.1c10.1,4.3,20.8,6.5,32.3,6.5
		c6.8,0,13-0.3,18.5-1c5.5-0.7,10.7-1.8,15.4-3.4c4.7-1.6,9.2-3.7,13.4-6.2c4.2-2.5,8.4-5.7,12.7-9.6c1.5-1.2,3-2.2,4.6-3
		C1837,413.2,1838.7,412.8,1840.6,412.8z"/>
</g>

<g class="sign">
	<path d="M257.8,538.4c1,0,2.2-12.7,3.6-18.8c2.2-9.3,4.9-18.1,8-26.2c7.4-19.2,17.2-34.1,29.1-44.5
		c3.2-2.8,6.6-5.3,10.2-7.4c3.7-2.2,7.6-4.1,11.7-5.7c4.4-1.6,9-2.9,13.8-3.7c5.2-0.9,10.8-1.4,16.7-1.4c8.9,0,16.7,0.8,24.5,2.5
		c8.4,1.9,16.9,4.9,26.2,9.2c10.1,4.7,21.2,11.1,33.9,19.4c13,8.5,27.8,19.2,45.3,32.6c23,17.7,47.5,32.5,72.7,43.9H257.8
		 M226.8,566.8h453.5l-0.1-28.3c-85.2,0-150.6-42.1-182.3-66.4c-71-54.5-105.4-69.7-147.2-69.7C227.1,402.4,226.8,566.8,226.8,566.8
		"/>
	<path d="M652,535.8c0-1-12.7-2.2-18.8-3.6c-9.3-2.2-18.1-4.9-26.2-8c-19.2-7.4-34.1-17.2-44.5-29.1
		c-2.8-3.2-5.3-6.6-7.4-10.2c-2.2-3.7-4.1-7.6-5.7-11.7c-1.6-4.4-2.9-9-3.7-13.8c-0.9-5.2-1.4-10.8-1.4-16.7
		c0-8.9,0.8-16.7,2.5-24.5c1.9-8.4,4.9-16.9,9.2-26.2c4.7-10.1,11.1-21.2,19.4-33.9c8.5-13,19.2-27.8,32.6-45.3
		c17.7-23,32.5-47.5,43.9-72.7V535.8 M680.3,566.8V113.2l-28.3,0.1c0,85.2-42.1,150.6-66.4,182.3c-54.5,71-69.7,105.4-69.7,147.2
		C516,566.4,680.3,566.8,680.3,566.8"/>
	<path d="M649.3,141.6c-1,0-2.2,12.7-3.6,18.8c-2.2,9.3-4.9,18.1-8,26.2c-7.4,19.2-17.2,34.1-29.1,44.5
		c-3.2,2.8-6.6,5.3-10.2,7.4c-3.7,2.2-7.6,4.1-11.7,5.7c-4.4,1.6-9,2.9-13.8,3.7c-5.2,0.9-10.8,1.4-16.7,1.4
		c-8.9,0-16.7-0.8-24.5-2.5c-8.4-1.9-16.9-4.9-26.2-9.2c-10.1-4.7-21.2-11.1-33.9-19.4c-13-8.5-27.8-19.2-45.3-32.6
		c-23-17.7-47.5-32.5-72.7-43.9H649.3 M680.3,113.2H226.8l0.1,28.3c85.2,0,150.6,42.1,182.3,66.4c71,54.5,105.4,69.7,147.2,69.7
		C680,277.6,680.3,113.2,680.3,113.2"/>
	<path d="M255.1,144.2c0,1,12.7,2.2,18.8,3.6c9.3,2.2,18.1,4.9,26.2,8c19.2,7.4,34.1,17.2,44.5,29.1
		c2.8,3.2,5.3,6.6,7.4,10.2c2.2,3.7,4.1,7.6,5.7,11.7c1.6,4.4,2.9,9,3.7,13.8c0.9,5.2,1.4,10.8,1.4,16.7c0,8.9-0.8,16.7-2.5,24.5
		c-1.9,8.4-4.9,16.9-9.2,26.2c-4.7,10.1-11.1,21.2-19.4,33.9c-8.5,13-19.2,27.8-32.6,45.3c-17.7,23-32.5,47.5-43.9,72.7V144.2
		 M226.8,113.2v453.5l28.3-0.1c0-85.2,42.1-150.6,66.4-182.3c54.5-71,69.7-105.4,69.7-147.2C391.1,113.6,226.8,113.2,226.8,113.2"/>
	<path d="M453.5,252.8c-48.1,0-87.2,39-87.2,87.2s39,87.2,87.2,87.2s87.2-39,87.2-87.2S501.7,252.8,453.5,252.8
		 M453.5,398.7c-32.4,0-58.7-26.3-58.7-58.7c0-32.4,26.3-58.7,58.7-58.7s58.7,26.3,58.7,58.7C512.3,372.4,486,398.7,453.5,398.7"/>
</g>
</svg>
