<?xml version="1.0" encoding="utf-8"?>
<!-- Generator: Adobe Illustrator 19.1.0, SVG Export Plug-In . SVG Version: 6.00 Build 0)  -->
<svg version="1.2" baseProfile="tiny" id="Camada_1"
	 xmlns="http://www.w3.org/2000/svg" xmlns:xlink="http://www.w3.org/1999/xlink" x="0px" y="0px" viewBox="0 0 720.5 720.9"
	 xml:space="preserve">
<path id="TO" fill="none" stroke="#979797" d="M475.1,200.3h-13.8l11.1-9.8l13.1,9.5l1.1,38.9l9.9,8.1
	l9-0.1l-0.1,9.8l-9.8-0.1l0.8,16l9,17.2l9.4-0.7l-16.1,19.3l10.7-0.1l-0.1,23.4l-21.5,11.6l-18.9,0.2l-8-7.2l-5.7-0.1l-6,8.4
	l-11.8-5.7l-0.7-17.4l-9.2,9.3l-3.5-0.5l0.1-17.2l7.7-31.9l20.9-28.7l11.5-31.3l6.8-13.7L475.1,200.3L475.1,200.3z"/>
<path id="PA" fill="none" stroke="#979797" d="M330.4,55.3l14.4,0.7l8-2.3l0.6,16.1l12.8,0.8l36.9,50.7
	l9.3,0.3l0.6-13.7l23.3-22l2.7,13.5l9.5,0.1l2.4,3.7l21.2,1.4l-7.8,10.5l-0.5,10.2l5.1,3.6l5.5-3.8l3.6-11.8l25.2-0.2l7.3,10.3
	l-13.9,45l-24.9,22.8l0.1,0.1l-10.6,9.4h13.8l-3.9,7.3l-6.8,13.7l-11.5,31.3l-21.5,28.5l-126.1-17L292,233.2l-8.3-10.8l43.9-85.7
	l-39.4-15.5l-12.3-27.2l5.5-19.8l15.6-1l5.5-4.9l27.4-1.4L330.4,55.3L330.4,55.3L330.4,55.3z"/>
<path id="AP" fill="none" stroke="#979797" d="M352.9,54.1l0.6,16.1l12.8,0.8l36.9,50.7l9.3,0.3
	l0.6-13.7l23.3-22l4.9-8.6l1.3-6.8l-6.5-9.8l-11.4-0.9l-10.8-39.5l-4.1-0.5l-19.3,38.1L352.9,54.1L352.9,54.1L352.9,54.1z"/>
<path id="RR" fill="none" stroke="#979797" d="M253.3,0.5l-6.8,0l-10.7,16l-10.2,1.4l-3.8,4.7l-12.5,0.7
	l-2.7,6.6l-4.4-3l-10.6,0l-5.8-5.6l-10.6-3.5l-10.4-2.9l13.6,13.2l2.3,25.8l13.1-0.2l9.2,8.1l0.5,9l7.7,9.3l-0.5,4.9l-7.9,11.5
	l9.9,10.6l0.3,9.7l9.5,7.1l5.1-1.2l5.7-15.1l11.8-0.7l9.7-13.8l20.9,1.1l5.8-19.9l-14.4-1.1l-1.7-6.4l-10.1-8.4l4.1-44.7l-4.1-1.4
	l0.4-8.5L253.3,0.5L253.3,0.5L253.3,0.5L253.3,0.5z"/>
<path id="RO" fill="none" stroke="#979797" d="M215.1,342.5l30.6,8.9l17.9-33.9l-9-0.6l-6.5-9.1l8.7-0.3
	l-0.2-7.1l-28,0.7l-0.5-39l-7.5-0.8l-13.3-15.8l-12-0.1l-49.5,32.7l7.5,0.3l5.8,2.2l2.8,3.9l-2.7,9.7l0.6,11.4l7.6,11.1l7.7,7.2
	l16.7,9.1L215.1,342.5L215.1,342.5L215.1,342.5z"/>
<path id="AM" fill="none" stroke="#979797" d="M193.1,62.3l0.7-8.8l9.2,8l0.5,9l7.7,9.3l-0.5,4.9
	l-7.9,11.5l9.9,10.6l0.3,9.7l9.4,7.1l5.1-1.2l5.8-15.1l11.9-0.7l9.7-13.8l21,1l1.5-5.2l-1.4,5.1l12.3,27.2l39.4,15.5l-43.9,85.7
	l8.1,10.6l-10,29.3l-54.1-0.4v0.4l-7.3-0.8l-13.3-15.8l-11.9-0.1l-49.6,32.8l-9.5,5.2L7.4,230.6l2-3.6l1.1-22.9l5.8-0.2l1.2-12.6
	l9-0.2l5-7.9l10.5,0.9l8-9.9l18.2,0.7l10.4-30.6l-3.2-18.8l-0.4-19.3l-7.8-9.2l0.5-11l15.2,0.4l0.2-6.4l-9.5-0.4l2.5-15.1l26.7-0.7
	l0.5-3.5l3.2-0.3l2.8,4.4l2.8-0.6l8.8-7.3l0.8,13.9l6.7,9.3l30.9-0.9l20.7-8.4l1.3-7.9L193.1,62.3L193.1,62.3z"/>
<path id="AC" fill="none" stroke="#979797" d="M5.1,229.1l3,1.1l125.3,52.3l-5.7,4.8l-1.4,6.2l-7.2,0.5
	l-0.1,5.5l-5.3,1.9l-1.4-3l-1.7,2.7l0.2,7.1l-48.4,0.3l-0.4-27.6l-9.1,2.7l-4.5,5.7l-15.7,0.4l-0.7-8.9l-10-0.2l-14.5-16l0-8.4
	l-7.1-5.1l0.4-22.2L5.1,229.1L5.1,229.1L5.1,229.1L5.1,229.1z"/>
<path id="BA" fill="none" stroke="#979797" d="M623.4,441.4l-5.6-0.4l-12-11.3l-2.9-8.7l14.5-13.5
	l-2.4-6.1l-18.5-15.7l-12,0.4l-15.4-10l-22-0.9l-2-10l-22,15.6l-14.6,0.8l1.1-73l-11.1,0l15.8-19.1l9.7,0l8.2,13.7l16-8.9l8.2-8.5
	l-8.6-11l43.1-0.1l9.7-8.8l4.4,0.7l9.2,12.5l20.5-16.6l19.2,12.5l0.5,16.3l9.6,0.7l-0.4,6.8l-10.4,1.1l0.1,11.5l8.3,7.6l7.5,2.4
	l-1.6,5.9l-5.5,3.3l-0.7,7.6l-3.7,3.3l-4.2,5l-7.6,4.2l-6.8,0.7l2.5,7l-0.6,40.5l-4.9,4.9l-1.9,5.7l-1.4,10.5l-2.7,6.2l-0.6,14
	L623.4,441.4L623.4,441.4L623.4,441.4z"/>
<path id="SE" fill="none" stroke="#979797" d="M678.2,313.4l-9.3,8l-6.5-2.6l-8.7-7l-1.1-12l11.4-1.1
	l9.8,0.5l13.3,2.1L678.2,313.4L678.2,313.4L678.2,313.4z"/>
<path id="AL" fill="none" stroke="#979797" d="M674.5,299.3l12.9,1.7l7.8-1.6l0.9-7.7l7.8-2.1l5.6-11.5
	l0.9-5.2l-14.5,4.5l-13.7,1.4l-5.8-2.2l-4.4-3.9l-3.3-3.3l-3.9,0.3l-5.5,3.3l-4.7,2.2l0,15.7l9.9,0.6l-0.3,7.2L674.5,299.3
	L674.5,299.3L674.5,299.3z"/>
<path id="RN" fill="none" stroke="#979797" d="M719.4,227.7l0.6-9.2l-3.8-5.4l-2.4-14.6l-29.5-0.4
	l-14.1-9.9l-19.7,29.6l11.7,6.7L678,220l1.2,10.9l9.7,0.5l0.3-9.9L719.4,227.7L719.4,227.7L719.4,227.7z"/>
<path id="CE" fill="none" stroke="#979797" d="M615.6,239.7l-12.9-83.5c30.1-2.3,51.6,14.5,67.7,31.8
	l-25.2,37.1l7.5,16.7l-8.5,9.8l-12.9-12.4L615.6,239.7L615.6,239.7L615.6,239.7z"/>
<path id="PI" fill="none" stroke="#979797" d="M524.4,289.4l-9.7,0.4l0.3-24.4
	c6.4-22.8,22.4-36.6,43.9-44.3l11.2-0.3l0.8-33.1l20.9-34.4l10.9,2.7l12.9,82.7l-0.2,13.8l-11.3,8.5l1.3,5.6l-4.4-1.4l-9.8,9.1
	l-42.4,0.6l8.3,10.7l-8.6,8.3l-16.4,9.2L524.4,289.4L524.4,289.4L524.4,289.4z"/>
<path id="MA" fill="none" stroke="#979797" d="M485.8,200.1l0.6,39.2l9.4,7.5l9.7,0.3l-0.2,9.5l-9.6,0.4
	l0.9,16.7l9.3,16.3l8.3-0.5l0.3-23.4c6.4-22.8,22.4-36.6,43.9-44.3l11.2-0.3l0.8-33.1l20.9-34.4l-30.9-9.5l-3.5,4.8l-6.2-1.6
	l-9.8-12.6l-6.3-1.6l-10.4-6.6l-5-2.8l-8.9-1.1L496.7,168l-24.9,22.8L485.8,200.1L485.8,200.1L485.8,200.1z"/>
<path id="PB" fill="none" stroke="#979797" d="M688.8,231.3l0.1-9.6l30.5,6.2l-0.2,15.5l-8.9,7.4
	l-15.2,0.8l-11.9,8.8l-8.3-20.2l-13.5,10.7l-8.9-9.2l-7.6-16.6l5.6-7.4l10.9,6.8l16.7-5l1,11.3L688.8,231.3L688.8,231.3z"/>
<path id="PE" fill="none" stroke="#979797" d="M710.3,272.8l5-3l3.8-10l0.2-16.9l-8.9,7.4l-15.2,0.8
	l-11.9,8.8l-8.3-20.2l-13.5,10.7l-8.9-9.2l-9.1,10.9l-12.1-12.8l-16.3,0.4l-0.3,13.1l-10.7,9.2l1.1,4.5l9.1,12.3l20.7-16.7l19,13.4
	l11.1-5.7l4.7,0.9l6.9,5.9l6.6,2.1l13.3-1.8L710.3,272.8L710.3,272.8L710.3,272.8z"/>
<path id="SP" fill="none" stroke="#979797" d="M464.4,564l5.3,3.4l10.5-9.9l2.4-8.7l10.2-4l15.5-2.4
	l3.9-1.8l1.4-4.9l7.7,0.1l8-11.2l0.8-4.6l-8.6-5.9l-11.7,5.1l-8.3,3.9l-7-0.8l-0.8-24.7L482.7,472l-28.7-0.2l-17.1-11.5l-17.4-1.5
	l0.5,8.9l-4.2,0.4l-10.2,12l-1.4,17.4l-16.1,11.1l13,0.7l35,16.4l17.1,37.1L464.4,564L464.4,564L464.4,564z"/>
<path id="SP_1_" fill="none" stroke="#979797" d="M522.1,535.7l7.1-11.4l0.7-4.2l-8.1-6.4l8.2-0.7
	l15.4-1l10.4-2.9l7.6-4.2l6.3-7.6l6.3-9.2l16.1,15.9l0.6,10l-3.3,4.4l-13.9,3.4l-2.3,6.2l-2.6,2.2l-37.8,0.3l-1.7,4.7L522.1,535.7
	L522.1,535.7L522.1,535.7z"/>
<path id="ES" fill="none" stroke="#979797" d="M592.2,503.4l1.5-2.2l3.3-1.3l5,0.4l1.9-4.7l0.7-6.7
	l3.6-4.6l6.5-7.8l2.4-11.7l-0.3-9l2.4-8l-1.4-6l-6.8-1.5l-9-3.1h-7l-0.7,20.8l-3.2,8.5l-4.8,10l-10.2,1.2l0.3,10L592.2,503.4
	L592.2,503.4L592.2,503.4z"/>
<path id="MG" fill="none" stroke="#979797" d="M497.4,372.8l10.6-0.1l1,8.4l14.6-0.8l21.9-15.7l2,10.1
	l21.9,0.9l15.5,10l12-0.4l18.5,15.7l2.4,6.1l-14.6,13.5l2.9,8.7l12,11.7l-6.8-1.1l-9-3.1h-7l-0.6,20.8l-3.3,8.5l-4.8,10.1l-10.2,1.2
	l0.3,10.2l-6.5,9.3l-6.3,7.6l-7.6,4.2l-10.4,2.9l-15.5,1l-8.2,0.7l4.8,3.8l-5-3.4l-11.8,5.1l-8.3,3.9l-7-0.8l-0.8-24.7l-11.1-25.6
	l-28.7-0.2l-17.1-11.5l-17.4-1.5l21.4-19.5l37.1-0.9l1.3-17.7l10.1-16.5l0.7-19.6l6.8,0.1L497.4,372.8L497.4,372.8L497.4,372.8z"/>
<path id="GO" fill="none" stroke="#979797" d="M425,340.2l-0.7-10.2l3.5,0.5l9.2-9.3l0.6,17.4l11.9,5.7
	l5.9-8.4l5.6,0.1l8,7.2L488,343l21.5-11.6l-0.6,46.6l-0.7-5.5l-10.5,0.1l-0.1,11.5l-6.8-0.1l-0.3,9.7l0.2-9.8l-21.9-3.7l-0.5,17.5
	l22.1-0.6l-0.2,6.4L479.9,420l-1.3,17.7l-37.1,0.9l-21.4,19.6l-36.2-28l-0.2-30.6l38.5-51.4L425,340.2L425,340.2L425,340.2z"/>
<path id="MS" fill="none" stroke="#979797" d="M420.3,458.2l-0.1,9.6l-4.2,0.4l-10.2,12l-1.4,17.3
	l-16.1,11.1l-29.9,25.8l-15.5,4.8l0.8-22.3l-6.9-0.1l-1.3-5.5l-7.2-0.1l0.3-3.5l-29.1,0.1l-2.8-5.6l2.9-12.3l-0.6-47.2l5.2-13.2
	l7.5-10.6l4.4-4.7l19.4,0.5l12.6,9l13.9,0l6.2-5.9l2.9-2.1l0.1,14.2l12.8,0.3L420.3,458.2L420.3,458.2z"/>
<path id="MT" fill="none" stroke="#979797" d="M247.6,358.1l-2.2-7.1l17.9-33.2l-9-0.6l-6.5-9.1l8.7-0.3
	l-0.2-7.1l-28,0.1l-0.5-39l54.1,0.4l10-29.5l13.4,31.3l126.6,17.1l-7.7,31.9l-0.1,17.2h0.1l0.7,10l-2.8,7.9l-38.5,51.4l0.2,30.6
	l0.1,0.1l-12.6-0.3l-0.1-14.1l-2.9,2l-6.2,5.9h-14l-12.6-9l-19.4-0.5l-4.4,4.7l-7.5,10.7L302,435l-3.8-3.5l-4-15.2l-7.3-6l-2.2-4.3
	l-0.9-8.4l-29.4,0.1l-2.3-13.5l-5.6-9.1l4.2-3.6l3.6-0.6l-0.7-10.7L247.6,358.1L247.6,358.1L247.6,358.1z"/>
<path id="DF" fill="none" stroke="#979797" d="M490.2,397.3l0.4-13.2l-22-3.7l-0.5,17.5L490.2,397.3
	L490.2,397.3L490.2,397.3z"/>
<path id="RS" fill="none" stroke="#979797" d="M376.7,719.1l-9.1,1.3l1.7-7l4-2.5l-2-13.9l-4.3-0.9
	l-4.7-8.5l-0.7-7.9l-7-2.9l-11-0.2l-10.6-6.2l-2.3-5.9l-9.6-5.9l-15.3-2.2l17.3-19.2l1.3-8.5l9.6-13.2l9.8-5.8l0.2-7.5l17.5-3.2
	l34.1,0.8l39.1,22.1l2.5,18.4l-7.5,17.4l-6.3,4.9l-5.6,9.8l-4,8.2l-19.3,11.4l-3.6,7l-2.7,11.4l-6.7,2.6L376.7,719.1L376.7,719.1
	L376.7,719.1z"/>
<path id="SC" fill="none" stroke="#979797" d="M443,637.3l-5.5,2l-2.5-17.9l-40.5-22.6l-34.8,0.4
	l-5.5,0.7l11.4-6.6l3.5-6l-0.2-7l25.7-0.3l9.4,5l9.1,1.4l6.8-3.3l5.1-5.3l19.4-0.6l15.8-3l-5.2,8.7l-0.9,39.9l-7.9,7.3L443,637.3
	L443,637.3L443,637.3z"/>
<path id="PR" fill="none" stroke="#979797" d="M461.2,573l3.4-2.1l4.7-3l-5.9-4.2l-10.3-1.4l-17.2-36.5
	l-35.4-16.1l-13.5-0.8l-28.8,25.6l0.4,33.4l0.7,3.6l10.1-0.5l-0.3,9l25.8-0.1l7.6,4.3l11,2.1l8-4.3l4.3-4.9l18.5-0.1L461.2,573
	L461.2,573L461.2,573z"/>
<g>
</g>
<g>
</g>
<g>
</g>
<g>
</g>
<g>
</g>
<g>
</g>
<g>
</g>
<g>
</g>
<g>
</g>
<g>
</g>
<g>
</g>
<g>
</g>
<g>
</g>
<g>
</g>
<g>
</g>
</svg>
