<?xml version="1.0" encoding="utf-8"?>
<!-- Generator: Adobe Illustrator 19.1.0, SVG Export Plug-In . SVG Version: 6.00 Build 0)  -->
<svg version="1.2" baseProfile="tiny" id="Camada_1"
	 xmlns="http://www.w3.org/2000/svg" xmlns:xlink="http://www.w3.org/1999/xlink" x="0px" y="0px" viewBox="0 0 1023.9 615.1"
	 xml:space="preserve">
<g>
	<path fill="#036E9F" d="M562.6,183c21.6,0,39.1,17.5,39.1,39.1s-17.5,39.1-39.1,39.1c-21.6,0-39.1-17.5-39.1-39.1
		S541,183,562.6,183"/>
	<path fill="#036E9F" d="M670.6,183c21.6,0,39.1,17.5,39.1,39.1s-17.5,39.1-39.1,39.1c-21.6,0-39.1-17.5-39.1-39.1
		S649,183,670.6,183"/>
	<path fill="#036E9F" d="M670.6,150.4c22.5,0,40.7-18.2,40.7-40.7S693.1,69,670.6,69c-22.5,0-40.7,18.2-40.7,40.7
		S648.1,150.4,670.6,150.4 M670.6,139.1c-16.3,0-29.4-13.2-29.4-29.4s13.2-29.4,29.4-29.4S700,93.4,700,109.7
		S686.8,139.1,670.6,139.1"/>
	<path fill="#036E9F" d="M562.6,150.4c22.5,0,40.7-18.2,40.7-40.7S585.1,69,562.6,69c-22.5,0-40.7,18.2-40.7,40.7
		S540.1,150.4,562.6,150.4 M562.6,139.1c-16.3,0-29.4-13.2-29.4-29.4s13.2-29.4,29.4-29.4c16.3,0,29.4,13.2,29.4,29.4
		S578.8,139.1,562.6,139.1"/>
</g>
<g>
	<path fill="#036E9F" d="M237,475.8c0,40.6-34.1,68.5-82.1,68.5c-18,0-38.1-3.4-49.9-8.7c0.6-18,0.9-27,1.9-54.9h1.9
		c3.7,4,8.1,6.8,12.7,9c7.4,3.1,16.7,4.7,27.3,4.7c15.5,0,26.3-6.8,26.3-21.1c0-8.7-5.9-16.1-15.8-24.2
		c-8.7-6.8-17.1-14.3-23.9-20.5c-16.4-14.6-29.4-33.8-29.4-59.8c0-37.5,25.7-71.6,83.1-71.6c11.8,0,27.3,1.9,36.3,4.6
		c-0.9,19.5-0.9,28.2-1.5,54.6h-2.2c-2.5-2.8-7.4-5.6-11.5-7.1c-4.6-1.5-9.6-2.5-16.4-2.5c-16.4,0-27.6,8.1-27.6,21.1
		c0,8.1,3.4,13.3,9.3,19.2c5.6,5.9,16.1,14,29.1,25.4c20.1,18,32.5,36,32.5,62.9V475.8z"/>
	<path fill="#036E9F" d="M483.4,543.7h-7.8c-49.9-42.2-80.3-68.5-101.1-87.4c-15.5-14-27.6-25.4-46.8-44.9h-0.6
		c0.6,12.7,0.6,20.8,0.6,28.2c0,84,0,97,4,99.2v1.9h-31.9h-29.1v-1.9c4-1.9,4-15.2,4-105.7V296.6h7.8c51.8,44,82.5,71,103.2,90.2
		c14.3,13.3,27.9,26.3,44.3,43.4h0.9c-0.3-15.5-0.6-25.7-0.6-35.3c0-79,0-92.4-4.3-94.2v-1.9h32.2h28.8v1.9
		c-3.7,1.9-3.7,15.2-3.7,99.5V543.7z"/>
	<path fill="#036E9F" d="M590.7,433c0,90.5,0,100.7,4.7,105.7v1.9h-32.2h-34.4v-2.2c4.3-4.3,4.3-14.9,4.3-105.4v-32.9
		c0-84.3,0-95.2-4-98.9v-2.5h32.9h32.9v2.2c-3.7,4-4,14.9-4,99.2V433z"/>
	<path fill="#036E9F" d="M698.9,433c0,90.5,0,100.7,4.6,105.7v1.9h-32.2h-34.4v-2.2c4.3-4.3,4.3-14.9,4.3-105.4v-32.9
		c0-84.3,0-95.2-4-98.9v-2.5H670h32.9v2.2c-3.7,4-4,14.9-4,99.2V433z"/>
	<path fill="#036E9F" d="M733,419.1c0-69.8,52.7-123.4,143.8-123.4c8.4,0,14.3,0.3,21.4,0.9c6.8,0.6,14.3,1.9,19.8,3.1
		c-0.9,16.4-1.2,29.8-2.2,55.8h-2.2c-3.4-3.1-7.4-5-12.7-6.5c-6.2-1.6-14.9-2.5-23.9-2.5c-49.3,0-81.8,28.8-81.8,72.5
		c0,44.6,29.4,74.1,75.9,74.1c10.8,0,20.1-0.3,28.8-2.8c5-1.2,9.6-3.1,14.6-6.5h1.9c0.3,12.4,1.2,42.2,1.5,54.2
		c-4.3,1.2-13.6,3.1-20.5,4.3c-12.1,1.5-20.1,1.9-30.7,1.9C790,544.3,733,496,733,419.4V419.1z"/>
</g>
<g>
</g>
<g>
</g>
<g>
</g>
<g>
</g>
<g>
</g>
<g>
</g>
<g>
</g>
<g>
</g>
<g>
</g>
<g>
</g>
<g>
</g>
<g>
</g>
<g>
</g>
<g>
</g>
<g>
</g>
</svg>
