<?xml version="1.0" standalone="no"?><!DOCTYPE svg PUBLIC "-//W3C//DTD SVG 1.1//EN" "http://www.w3.org/Graphics/SVG/1.1/DTD/svg11.dtd"><svg width="100%" height="100%" viewBox="0 0 245 31" version="1.1" xmlns="http://www.w3.org/2000/svg" xmlns:xlink="http://www.w3.org/1999/xlink" xml:space="preserve" style="fill-rule:evenodd;clip-rule:evenodd;stroke-linejoin:round;stroke-miterlimit:1.41421;"><clipPath id="_clip1"><rect x="0" y="0" width="244.717" height="31"/></clipPath><g clip-path="url(#_clip1)"><g><path d="M31,0l-31,0l0,31l31,0l0,-31ZM29,29l-27,0l0,-27l27,0l0,27Z" style="fill:#fff;fill-rule:nonzero;"/><path d="M30,22.968l-21.954,0.027l-0.021,-21.995l-2.979,0l0,24.968l24.954,0l0,-3Z" style="fill:#fff;fill-rule:nonzero;"/><path d="M30,17l-15.986,0.027l-0.02,-16.027l-2.98,0l0,19l18.986,0l0,-3Z" style="fill:#fff;fill-rule:nonzero;"/><path d="M30,11l-10,0.027l-0.02,-10.027l-2.98,0l0,13l13,0l0,-3Z" style="fill:#fff;fill-rule:nonzero;"/><path d="M30,5.013l-4.003,0l0,-4.013l-2.997,0l0,7l7,0l0,-2.987Z" style="fill:#fff;fill-rule:nonzero;"/></g><path id="type" d="M59.737,15.893c0,1.166 -0.195,2.237 -0.583,3.212c-0.389,0.975 -0.935,1.815 -1.639,2.519c-0.704,0.704 -1.551,1.25 -2.541,1.639c-0.99,0.389 -2.09,0.583 -3.3,0.583l-6.062,0l0,-15.906l6.062,0c1.21,0 2.31,0.196 3.3,0.588c0.99,0.393 1.837,0.939 2.541,1.639c0.704,0.701 1.25,1.539 1.639,2.514c0.388,0.975 0.583,2.046 0.583,3.212ZM56.701,15.893c0,-0.873 -0.116,-1.656 -0.347,-2.349c-0.231,-0.693 -0.565,-1.279 -1.001,-1.76c-0.436,-0.48 -0.964,-0.848 -1.584,-1.105c-0.62,-0.257 -1.318,-0.385 -2.095,-0.385l-3.092,0l0,11.198l3.092,0c0.777,0 1.475,-0.128 2.095,-0.385c0.62,-0.257 1.148,-0.625 1.584,-1.106c0.436,-0.48 0.77,-1.067 1.001,-1.76c0.231,-0.693 0.347,-1.475 0.347,-2.348Z" style="fill:#fff;fill-rule:nonzero;"/><path d="M67.602,19.028c-0.785,0.037 -1.445,0.104 -1.98,0.203c-0.535,0.099 -0.965,0.226 -1.287,0.38c-0.323,0.154 -0.554,0.334 -0.693,0.539c-0.14,0.205 -0.209,0.429 -0.209,0.671c0,0.477 0.141,0.818 0.423,1.023c0.283,0.205 0.651,0.308 1.106,0.308c0.557,0 1.039,-0.101 1.446,-0.303c0.407,-0.201 0.805,-0.507 1.194,-0.918l0,-1.903ZM61.376,14.133c1.298,-1.188 2.86,-1.782 4.686,-1.782c0.66,0 1.25,0.108 1.771,0.324c0.521,0.217 0.961,0.517 1.32,0.902c0.359,0.385 0.632,0.846 0.819,1.381c0.187,0.535 0.281,1.122 0.281,1.76l0,7.128l-1.232,0c-0.257,0 -0.455,-0.039 -0.594,-0.116c-0.139,-0.077 -0.249,-0.232 -0.33,-0.467l-0.242,-0.814c-0.286,0.257 -0.565,0.482 -0.836,0.676c-0.271,0.195 -0.554,0.358 -0.847,0.49c-0.293,0.132 -0.607,0.233 -0.941,0.302c-0.333,0.07 -0.702,0.105 -1.105,0.105c-0.477,0 -0.917,-0.064 -1.32,-0.193c-0.404,-0.128 -0.752,-0.32 -1.045,-0.577c-0.294,-0.257 -0.521,-0.576 -0.682,-0.957c-0.162,-0.381 -0.242,-0.825 -0.242,-1.331c0,-0.286 0.047,-0.57 0.143,-0.853c0.095,-0.282 0.251,-0.551 0.467,-0.808c0.217,-0.257 0.497,-0.499 0.842,-0.726c0.344,-0.227 0.768,-0.425 1.27,-0.594c0.503,-0.169 1.087,-0.306 1.755,-0.413c0.667,-0.106 1.43,-0.17 2.288,-0.192l0,-0.66c0,-0.755 -0.161,-1.315 -0.484,-1.678c-0.323,-0.363 -0.788,-0.544 -1.397,-0.544c-0.44,0 -0.805,0.051 -1.095,0.154c-0.289,0.103 -0.544,0.218 -0.764,0.346c-0.22,0.129 -0.42,0.244 -0.6,0.347c-0.179,0.103 -0.379,0.154 -0.599,0.154c-0.191,0 -0.352,-0.05 -0.484,-0.149c-0.132,-0.099 -0.239,-0.214 -0.319,-0.346l-0.484,-0.869Z" style="fill:#fff;fill-rule:nonzero;"/><path d="M79.889,15.442c-0.308,-0.374 -0.643,-0.638 -1.006,-0.792c-0.363,-0.154 -0.754,-0.231 -1.172,-0.231c-0.411,0 -0.781,0.077 -1.111,0.231c-0.33,0.154 -0.612,0.387 -0.847,0.698c-0.235,0.312 -0.414,0.708 -0.539,1.188c-0.125,0.481 -0.187,1.047 -0.187,1.7c0,0.66 0.053,1.219 0.16,1.677c0.106,0.459 0.258,0.833 0.456,1.122c0.198,0.29 0.44,0.499 0.726,0.627c0.286,0.129 0.605,0.193 0.957,0.193c0.565,0 1.045,-0.117 1.441,-0.352c0.396,-0.235 0.77,-0.568 1.122,-1.001l0,-5.06ZM82.606,7.5l0,16.346l-1.661,0c-0.359,0 -0.586,-0.165 -0.682,-0.495l-0.231,-1.089c-0.455,0.521 -0.977,0.942 -1.567,1.265c-0.591,0.323 -1.278,0.484 -2.063,0.484c-0.616,0 -1.181,-0.128 -1.694,-0.385c-0.513,-0.257 -0.955,-0.629 -1.325,-1.117c-0.371,-0.487 -0.657,-1.09 -0.858,-1.809c-0.202,-0.719 -0.303,-1.54 -0.303,-2.464c0,-0.836 0.114,-1.613 0.341,-2.332c0.227,-0.719 0.554,-1.342 0.979,-1.87c0.425,-0.528 0.935,-0.941 1.529,-1.238c0.594,-0.297 1.261,-0.445 2.002,-0.445c0.631,0 1.17,0.099 1.617,0.297c0.447,0.198 0.847,0.466 1.199,0.803l0,-5.951l2.717,0Z" style="fill:#fff;fill-rule:nonzero;"/><path d="M90.284,12.384c0.836,0 1.597,0.136 2.283,0.407c0.686,0.271 1.272,0.656 1.76,1.155c0.488,0.499 0.864,1.107 1.128,1.826c0.264,0.719 0.396,1.522 0.396,2.409c0,0.895 -0.132,1.701 -0.396,2.42c-0.264,0.719 -0.64,1.331 -1.128,1.837c-0.488,0.506 -1.074,0.895 -1.76,1.166c-0.686,0.271 -1.447,0.407 -2.283,0.407c-0.843,0 -1.609,-0.136 -2.299,-0.407c-0.689,-0.271 -1.278,-0.66 -1.765,-1.166c-0.488,-0.506 -0.866,-1.118 -1.133,-1.837c-0.268,-0.719 -0.402,-1.525 -0.402,-2.42c0,-0.887 0.134,-1.69 0.402,-2.409c0.267,-0.719 0.645,-1.327 1.133,-1.826c0.487,-0.499 1.076,-0.884 1.765,-1.155c0.69,-0.271 1.456,-0.407 2.299,-0.407ZM90.284,21.921c0.939,0 1.634,-0.315 2.085,-0.946c0.451,-0.631 0.676,-1.555 0.676,-2.772c0,-1.217 -0.225,-2.145 -0.676,-2.783c-0.451,-0.638 -1.146,-0.957 -2.085,-0.957c-0.953,0 -1.659,0.321 -2.117,0.962c-0.458,0.642 -0.688,1.568 -0.688,2.778c0,1.21 0.23,2.132 0.688,2.766c0.458,0.635 1.164,0.952 2.117,0.952Z" style="fill:#fff;fill-rule:nonzero;"/><path d="M104.816,14.76c-0.074,0.117 -0.151,0.2 -0.231,0.247c-0.081,0.048 -0.184,0.072 -0.308,0.072c-0.132,0 -0.273,-0.037 -0.424,-0.11c-0.15,-0.073 -0.324,-0.156 -0.522,-0.248c-0.198,-0.091 -0.424,-0.174 -0.677,-0.247c-0.253,-0.073 -0.552,-0.11 -0.896,-0.11c-0.536,0 -0.956,0.114 -1.26,0.341c-0.304,0.227 -0.456,0.524 -0.456,0.891c0,0.242 0.078,0.445 0.236,0.61c0.158,0.165 0.367,0.31 0.627,0.435c0.26,0.125 0.556,0.236 0.886,0.335c0.33,0.099 0.665,0.208 1.006,0.325c0.341,0.117 0.677,0.251 1.007,0.401c0.33,0.151 0.625,0.341 0.885,0.572c0.261,0.231 0.47,0.508 0.627,0.831c0.158,0.323 0.237,0.711 0.237,1.166c0,0.543 -0.097,1.043 -0.292,1.501c-0.194,0.459 -0.482,0.855 -0.863,1.188c-0.382,0.334 -0.853,0.594 -1.414,0.781c-0.561,0.187 -1.208,0.281 -1.941,0.281c-0.389,0 -0.769,-0.035 -1.139,-0.105c-0.37,-0.069 -0.726,-0.166 -1.067,-0.291c-0.341,-0.125 -0.656,-0.271 -0.946,-0.44c-0.29,-0.169 -0.544,-0.352 -0.764,-0.55l0.627,-1.034c0.08,-0.125 0.176,-0.22 0.286,-0.286c0.11,-0.066 0.249,-0.099 0.418,-0.099c0.168,0 0.328,0.048 0.478,0.143c0.15,0.095 0.325,0.198 0.523,0.308c0.198,0.11 0.43,0.213 0.698,0.308c0.268,0.095 0.607,0.143 1.018,0.143c0.322,0 0.599,-0.039 0.83,-0.116c0.231,-0.077 0.422,-0.177 0.572,-0.302c0.151,-0.125 0.261,-0.27 0.33,-0.435c0.07,-0.165 0.105,-0.335 0.105,-0.511c0,-0.264 -0.079,-0.48 -0.237,-0.649c-0.158,-0.169 -0.367,-0.315 -0.627,-0.44c-0.26,-0.125 -0.557,-0.237 -0.891,-0.336c-0.334,-0.099 -0.675,-0.207 -1.023,-0.324c-0.348,-0.117 -0.689,-0.255 -1.023,-0.413c-0.334,-0.157 -0.631,-0.357 -0.891,-0.599c-0.26,-0.242 -0.469,-0.539 -0.627,-0.891c-0.158,-0.352 -0.236,-0.777 -0.236,-1.276c0,-0.462 0.091,-0.902 0.275,-1.32c0.183,-0.418 0.452,-0.783 0.808,-1.095c0.356,-0.311 0.799,-0.561 1.331,-0.748c0.532,-0.187 1.146,-0.28 1.843,-0.28c0.777,0 1.485,0.128 2.123,0.385c0.638,0.257 1.169,0.594 1.595,1.012l-0.616,0.979Z" style="fill:#fff;fill-rule:nonzero;"/><path d="M106.499,22.35c0,-0.227 0.042,-0.444 0.126,-0.649c0.085,-0.205 0.2,-0.381 0.347,-0.528c0.146,-0.147 0.322,-0.264 0.528,-0.352c0.205,-0.088 0.425,-0.132 0.66,-0.132c0.234,0 0.453,0.044 0.654,0.132c0.202,0.088 0.378,0.205 0.528,0.352c0.151,0.147 0.27,0.323 0.358,0.528c0.088,0.205 0.132,0.422 0.132,0.649c0,0.235 -0.044,0.453 -0.132,0.654c-0.088,0.202 -0.207,0.376 -0.358,0.523c-0.15,0.147 -0.326,0.262 -0.528,0.346c-0.201,0.085 -0.42,0.127 -0.654,0.127c-0.235,0 -0.455,-0.042 -0.66,-0.127c-0.206,-0.084 -0.382,-0.199 -0.528,-0.346c-0.147,-0.147 -0.262,-0.321 -0.347,-0.523c-0.084,-0.201 -0.126,-0.419 -0.126,-0.654Z" style="fill:#e6e6e6;fill-rule:nonzero;"/><path d="M120.205,14.947c-0.081,0.103 -0.159,0.183 -0.236,0.242c-0.077,0.059 -0.189,0.088 -0.336,0.088c-0.139,0 -0.275,-0.042 -0.407,-0.127c-0.132,-0.084 -0.29,-0.179 -0.473,-0.286c-0.183,-0.106 -0.401,-0.201 -0.654,-0.286c-0.253,-0.084 -0.567,-0.126 -0.941,-0.126c-0.477,0 -0.895,0.086 -1.254,0.258c-0.359,0.173 -0.658,0.42 -0.897,0.743c-0.238,0.323 -0.416,0.713 -0.533,1.171c-0.117,0.459 -0.176,0.978 -0.176,1.557c0,0.601 0.064,1.137 0.192,1.606c0.129,0.469 0.314,0.863 0.556,1.182c0.242,0.319 0.535,0.561 0.88,0.726c0.345,0.165 0.733,0.248 1.166,0.248c0.433,0 0.783,-0.053 1.051,-0.16c0.267,-0.106 0.493,-0.223 0.676,-0.352c0.183,-0.128 0.343,-0.245 0.479,-0.352c0.135,-0.106 0.287,-0.159 0.456,-0.159c0.22,0 0.385,0.084 0.495,0.253l0.781,0.99c-0.301,0.352 -0.627,0.647 -0.979,0.885c-0.352,0.239 -0.717,0.429 -1.094,0.572c-0.378,0.143 -0.767,0.244 -1.166,0.303c-0.4,0.059 -0.798,0.088 -1.194,0.088c-0.697,0 -1.353,-0.13 -1.969,-0.391c-0.616,-0.26 -1.155,-0.639 -1.617,-1.138c-0.462,-0.499 -0.827,-1.109 -1.095,-1.832c-0.267,-0.722 -0.401,-1.545 -0.401,-2.469c0,-0.829 0.119,-1.597 0.357,-2.305c0.239,-0.707 0.589,-1.32 1.051,-1.837c0.462,-0.517 1.034,-0.922 1.716,-1.215c0.682,-0.293 1.467,-0.44 2.354,-0.44c0.843,0 1.582,0.136 2.217,0.407c0.634,0.271 1.204,0.66 1.71,1.166l-0.715,0.99Z" style="fill:#e6e6e6;fill-rule:nonzero;"/><path d="M132.448,12.56l0,11.286l-1.661,0c-0.359,0 -0.586,-0.165 -0.682,-0.495l-0.187,-0.902c-0.462,0.469 -0.971,0.849 -1.529,1.138c-0.557,0.29 -1.213,0.435 -1.969,0.435c-0.616,0 -1.16,-0.105 -1.633,-0.314c-0.473,-0.209 -0.871,-0.504 -1.194,-0.885c-0.323,-0.381 -0.566,-0.834 -0.731,-1.359c-0.165,-0.524 -0.248,-1.101 -0.248,-1.732l0,-7.172l2.717,0l0,7.172c0,0.689 0.16,1.223 0.479,1.6c0.319,0.378 0.797,0.567 1.435,0.567c0.47,0 0.91,-0.105 1.32,-0.314c0.411,-0.209 0.8,-0.496 1.166,-0.863l0,-8.162l2.717,0Z" style="fill:#e6e6e6;fill-rule:nonzero;"/><rect x="135.165" y="7.5" width="2.717" height="16.346" style="fill:#e6e6e6;fill-rule:nonzero;"/><path d="M144.362,24.022c-0.983,0 -1.737,-0.277 -2.261,-0.831c-0.524,-0.553 -0.786,-1.318 -0.786,-2.293l0,-6.303l-1.156,0c-0.146,0 -0.271,-0.048 -0.374,-0.143c-0.102,-0.095 -0.154,-0.238 -0.154,-0.429l0,-1.078l1.816,-0.297l0.572,-3.08c0.036,-0.147 0.106,-0.26 0.209,-0.341c0.102,-0.081 0.234,-0.121 0.396,-0.121l1.408,0l0,3.553l3.014,0l0,1.936l-3.014,0l0,6.116c0,0.352 0.086,0.627 0.258,0.825c0.172,0.198 0.409,0.297 0.71,0.297c0.168,0 0.309,-0.02 0.423,-0.061c0.114,-0.04 0.213,-0.082 0.297,-0.126c0.084,-0.044 0.16,-0.086 0.226,-0.127c0.066,-0.04 0.132,-0.06 0.198,-0.06c0.08,0 0.146,0.02 0.198,0.06c0.051,0.041 0.106,0.101 0.165,0.182l0.814,1.32c-0.396,0.33 -0.851,0.579 -1.364,0.748c-0.514,0.169 -1.045,0.253 -1.595,0.253Z" style="fill:#e6e6e6;fill-rule:nonzero;"/><path d="M158.508,12.56l0,11.286l-1.661,0c-0.359,0 -0.587,-0.165 -0.682,-0.495l-0.187,-0.902c-0.462,0.469 -0.972,0.849 -1.529,1.138c-0.558,0.29 -1.214,0.435 -1.969,0.435c-0.616,0 -1.161,-0.105 -1.634,-0.314c-0.473,-0.209 -0.871,-0.504 -1.193,-0.885c-0.323,-0.381 -0.567,-0.834 -0.732,-1.359c-0.165,-0.524 -0.247,-1.101 -0.247,-1.732l0,-7.172l2.717,0l0,7.172c0,0.689 0.159,1.223 0.478,1.6c0.319,0.378 0.798,0.567 1.436,0.567c0.469,0 0.909,-0.105 1.32,-0.314c0.41,-0.209 0.799,-0.496 1.166,-0.863l0,-8.162l2.717,0Z" style="fill:#e6e6e6;fill-rule:nonzero;"/><path d="M163.755,14.518c0.352,-0.675 0.77,-1.205 1.254,-1.59c0.484,-0.385 1.056,-0.577 1.716,-0.577c0.521,0 0.939,0.114 1.254,0.341l-0.176,2.035c-0.037,0.132 -0.09,0.225 -0.159,0.28c-0.07,0.055 -0.164,0.083 -0.281,0.083c-0.11,0 -0.273,-0.018 -0.489,-0.055c-0.217,-0.037 -0.428,-0.055 -0.633,-0.055c-0.301,0 -0.568,0.044 -0.803,0.132c-0.235,0.088 -0.445,0.214 -0.632,0.379c-0.187,0.165 -0.352,0.365 -0.495,0.6c-0.143,0.235 -0.277,0.502 -0.402,0.803l0,6.952l-2.717,0l0,-11.286l1.595,0c0.279,0 0.473,0.049 0.583,0.148c0.11,0.099 0.183,0.277 0.22,0.534l0.165,1.276Z" style="fill:#e6e6e6;fill-rule:nonzero;"/><path d="M175.217,19.028c-0.784,0.037 -1.444,0.104 -1.98,0.203c-0.535,0.099 -0.964,0.226 -1.287,0.38c-0.322,0.154 -0.553,0.334 -0.693,0.539c-0.139,0.205 -0.209,0.429 -0.209,0.671c0,0.477 0.141,0.818 0.424,1.023c0.282,0.205 0.651,0.308 1.105,0.308c0.558,0 1.04,-0.101 1.447,-0.303c0.407,-0.201 0.805,-0.507 1.193,-0.918l0,-1.903ZM168.991,14.133c1.298,-1.188 2.86,-1.782 4.686,-1.782c0.66,0 1.251,0.108 1.771,0.324c0.521,0.217 0.961,0.517 1.32,0.902c0.36,0.385 0.633,0.846 0.82,1.381c0.187,0.535 0.28,1.122 0.28,1.76l0,7.128l-1.232,0c-0.256,0 -0.454,-0.039 -0.594,-0.116c-0.139,-0.077 -0.249,-0.232 -0.33,-0.467l-0.242,-0.814c-0.286,0.257 -0.564,0.482 -0.836,0.676c-0.271,0.195 -0.553,0.358 -0.847,0.49c-0.293,0.132 -0.607,0.233 -0.94,0.302c-0.334,0.07 -0.702,0.105 -1.106,0.105c-0.476,0 -0.916,-0.064 -1.32,-0.193c-0.403,-0.128 -0.752,-0.32 -1.045,-0.577c-0.293,-0.257 -0.521,-0.576 -0.682,-0.957c-0.161,-0.381 -0.242,-0.825 -0.242,-1.331c0,-0.286 0.048,-0.57 0.143,-0.853c0.095,-0.282 0.251,-0.551 0.468,-0.808c0.216,-0.257 0.496,-0.499 0.841,-0.726c0.345,-0.227 0.768,-0.425 1.271,-0.594c0.502,-0.169 1.087,-0.306 1.754,-0.413c0.668,-0.106 1.43,-0.17 2.288,-0.192l0,-0.66c0,-0.755 -0.161,-1.315 -0.484,-1.678c-0.322,-0.363 -0.788,-0.544 -1.397,-0.544c-0.44,0 -0.805,0.051 -1.094,0.154c-0.29,0.103 -0.545,0.218 -0.765,0.346c-0.22,0.129 -0.42,0.244 -0.599,0.347c-0.18,0.103 -0.38,0.154 -0.6,0.154c-0.191,0 -0.352,-0.05 -0.484,-0.149c-0.132,-0.099 -0.238,-0.214 -0.319,-0.346l-0.484,-0.869Z" style="fill:#e6e6e6;fill-rule:nonzero;"/><path d="M180.024,22.35c0,-0.227 0.043,-0.444 0.127,-0.649c0.084,-0.205 0.2,-0.381 0.346,-0.528c0.147,-0.147 0.323,-0.264 0.528,-0.352c0.206,-0.088 0.426,-0.132 0.66,-0.132c0.235,0 0.453,0.044 0.655,0.132c0.202,0.088 0.378,0.205 0.528,0.352c0.15,0.147 0.269,0.323 0.357,0.528c0.088,0.205 0.132,0.422 0.132,0.649c0,0.235 -0.044,0.453 -0.132,0.654c-0.088,0.202 -0.207,0.376 -0.357,0.523c-0.15,0.147 -0.326,0.262 -0.528,0.346c-0.202,0.085 -0.42,0.127 -0.655,0.127c-0.234,0 -0.454,-0.042 -0.66,-0.127c-0.205,-0.084 -0.381,-0.199 -0.528,-0.346c-0.146,-0.147 -0.262,-0.321 -0.346,-0.523c-0.084,-0.201 -0.127,-0.419 -0.127,-0.654Z" style="fill:#e6e6e6;fill-rule:nonzero;"/><path d="M189.771,17.928c0.337,0 0.63,-0.046 0.88,-0.138c0.249,-0.091 0.456,-0.218 0.621,-0.379c0.165,-0.161 0.29,-0.356 0.374,-0.583c0.084,-0.227 0.127,-0.477 0.127,-0.748c0,-0.557 -0.167,-0.999 -0.501,-1.326c-0.334,-0.326 -0.834,-0.489 -1.501,-0.489c-0.668,0 -1.168,0.163 -1.502,0.489c-0.334,0.327 -0.5,0.769 -0.5,1.326c0,0.264 0.042,0.51 0.126,0.737c0.084,0.227 0.209,0.423 0.374,0.588c0.165,0.165 0.374,0.294 0.627,0.385c0.253,0.092 0.545,0.138 0.875,0.138ZM192.84,24.352c0,-0.22 -0.066,-0.4 -0.198,-0.539c-0.132,-0.139 -0.312,-0.248 -0.539,-0.325c-0.228,-0.077 -0.494,-0.133 -0.798,-0.17c-0.304,-0.037 -0.627,-0.064 -0.968,-0.083c-0.341,-0.018 -0.693,-0.034 -1.056,-0.049c-0.363,-0.015 -0.717,-0.044 -1.061,-0.088c-0.301,0.169 -0.545,0.367 -0.732,0.594c-0.187,0.227 -0.28,0.491 -0.28,0.792c0,0.198 0.049,0.383 0.148,0.555c0.099,0.173 0.257,0.321 0.473,0.446c0.216,0.125 0.497,0.222 0.842,0.291c0.344,0.07 0.766,0.105 1.265,0.105c0.506,0 0.942,-0.039 1.309,-0.116c0.366,-0.077 0.669,-0.183 0.907,-0.319c0.238,-0.135 0.413,-0.297 0.523,-0.484c0.11,-0.187 0.165,-0.39 0.165,-0.61ZM195.546,12.945l0,1.012c0,0.323 -0.195,0.521 -0.583,0.594l-1.012,0.187c0.154,0.389 0.231,0.814 0.231,1.276c0,0.557 -0.112,1.061 -0.336,1.512c-0.223,0.451 -0.533,0.835 -0.929,1.15c-0.396,0.315 -0.864,0.559 -1.403,0.731c-0.539,0.173 -1.12,0.259 -1.743,0.259c-0.22,0 -0.433,-0.011 -0.638,-0.033c-0.206,-0.022 -0.407,-0.051 -0.605,-0.088c-0.352,0.213 -0.528,0.451 -0.528,0.715c0,0.227 0.104,0.394 0.313,0.5c0.209,0.107 0.486,0.182 0.831,0.226c0.344,0.044 0.737,0.071 1.177,0.082c0.44,0.011 0.891,0.035 1.353,0.072c0.462,0.037 0.913,0.101 1.353,0.192c0.44,0.092 0.832,0.237 1.177,0.435c0.344,0.198 0.621,0.467 0.83,0.808c0.209,0.341 0.314,0.78 0.314,1.315c0,0.499 -0.123,0.983 -0.369,1.452c-0.245,0.469 -0.601,0.887 -1.067,1.254c-0.465,0.367 -1.038,0.662 -1.716,0.885c-0.678,0.224 -1.45,0.336 -2.315,0.336c-0.851,0 -1.592,-0.083 -2.222,-0.248c-0.631,-0.165 -1.155,-0.385 -1.573,-0.66c-0.418,-0.275 -0.73,-0.592 -0.936,-0.951c-0.205,-0.359 -0.308,-0.733 -0.308,-1.122c0,-0.528 0.16,-0.97 0.479,-1.326c0.319,-0.355 0.757,-0.639 1.315,-0.852c-0.301,-0.154 -0.539,-0.359 -0.715,-0.616c-0.176,-0.257 -0.264,-0.594 -0.264,-1.012c0,-0.169 0.031,-0.343 0.093,-0.523c0.062,-0.179 0.154,-0.357 0.275,-0.533c0.121,-0.176 0.273,-0.343 0.457,-0.501c0.183,-0.157 0.399,-0.298 0.649,-0.423c-0.572,-0.308 -1.022,-0.719 -1.348,-1.232c-0.326,-0.513 -0.49,-1.115 -0.49,-1.804c0,-0.557 0.112,-1.062 0.336,-1.513c0.224,-0.451 0.535,-0.836 0.935,-1.155c0.4,-0.319 0.873,-0.562 1.419,-0.731c0.546,-0.169 1.142,-0.253 1.788,-0.253c0.484,0 0.938,0.049 1.364,0.148c0.425,0.099 0.814,0.244 1.166,0.435l3.245,0Z" style="fill:#e6e6e6;fill-rule:nonzero;"/><path d="M202.058,12.384c0.836,0 1.597,0.136 2.282,0.407c0.686,0.271 1.273,0.656 1.76,1.155c0.488,0.499 0.864,1.107 1.128,1.826c0.264,0.719 0.396,1.522 0.396,2.409c0,0.895 -0.132,1.701 -0.396,2.42c-0.264,0.719 -0.64,1.331 -1.128,1.837c-0.487,0.506 -1.074,0.895 -1.76,1.166c-0.685,0.271 -1.446,0.407 -2.282,0.407c-0.843,0 -1.61,-0.136 -2.299,-0.407c-0.69,-0.271 -1.278,-0.66 -1.766,-1.166c-0.487,-0.506 -0.865,-1.118 -1.133,-1.837c-0.267,-0.719 -0.401,-1.525 -0.401,-2.42c0,-0.887 0.134,-1.69 0.401,-2.409c0.268,-0.719 0.646,-1.327 1.133,-1.826c0.488,-0.499 1.076,-0.884 1.766,-1.155c0.689,-0.271 1.456,-0.407 2.299,-0.407ZM202.058,21.921c0.939,0 1.633,-0.315 2.084,-0.946c0.451,-0.631 0.677,-1.555 0.677,-2.772c0,-1.217 -0.226,-2.145 -0.677,-2.783c-0.451,-0.638 -1.145,-0.957 -2.084,-0.957c-0.953,0 -1.659,0.321 -2.118,0.962c-0.458,0.642 -0.687,1.568 -0.687,2.778c0,1.21 0.229,2.132 0.687,2.766c0.459,0.635 1.165,0.952 2.118,0.952Z" style="fill:#e6e6e6;fill-rule:nonzero;"/><path d="M219.526,12.56l-4.477,11.286l-2.464,0l-4.477,-11.286l2.244,0c0.205,0 0.376,0.048 0.512,0.143c0.135,0.095 0.225,0.216 0.269,0.363l2.178,6.028c0.117,0.352 0.22,0.697 0.308,1.034c0.088,0.337 0.165,0.675 0.231,1.012c0.073,-0.337 0.154,-0.675 0.242,-1.012c0.088,-0.337 0.194,-0.682 0.319,-1.034l2.222,-6.028c0.052,-0.147 0.143,-0.268 0.275,-0.363c0.132,-0.095 0.29,-0.143 0.473,-0.143l2.145,0Z" style="fill:#e6e6e6;fill-rule:nonzero;"/><path d="M219.823,22.35c0,-0.227 0.042,-0.444 0.127,-0.649c0.084,-0.205 0.2,-0.381 0.346,-0.528c0.147,-0.147 0.323,-0.264 0.528,-0.352c0.206,-0.088 0.426,-0.132 0.66,-0.132c0.235,0 0.453,0.044 0.655,0.132c0.202,0.088 0.378,0.205 0.528,0.352c0.15,0.147 0.269,0.323 0.357,0.528c0.088,0.205 0.132,0.422 0.132,0.649c0,0.235 -0.044,0.453 -0.132,0.654c-0.088,0.202 -0.207,0.376 -0.357,0.523c-0.15,0.147 -0.326,0.262 -0.528,0.346c-0.202,0.085 -0.42,0.127 -0.655,0.127c-0.234,0 -0.454,-0.042 -0.66,-0.127c-0.205,-0.084 -0.381,-0.199 -0.528,-0.346c-0.146,-0.147 -0.262,-0.321 -0.346,-0.523c-0.085,-0.201 -0.127,-0.419 -0.127,-0.654Z" style="fill:#e6e6e6;fill-rule:nonzero;"/><path d="M228.161,20.92c0.308,0.374 0.644,0.638 1.007,0.792c0.363,0.154 0.746,0.231 1.15,0.231c0.418,0 0.793,-0.075 1.127,-0.226c0.334,-0.15 0.618,-0.385 0.853,-0.704c0.234,-0.319 0.414,-0.726 0.539,-1.221c0.124,-0.495 0.187,-1.087 0.187,-1.776c0,-1.239 -0.206,-2.136 -0.616,-2.69c-0.411,-0.553 -1.001,-0.83 -1.771,-0.83c-0.521,0 -0.976,0.119 -1.365,0.357c-0.388,0.239 -0.759,0.574 -1.111,1.007l0,5.06ZM228.161,13.946c0.455,-0.477 0.959,-0.856 1.513,-1.139c0.554,-0.282 1.186,-0.423 1.898,-0.423c0.652,0 1.241,0.128 1.765,0.385c0.524,0.257 0.972,0.625 1.342,1.105c0.37,0.481 0.655,1.062 0.853,1.744c0.198,0.682 0.297,1.448 0.297,2.299c0,0.917 -0.114,1.749 -0.341,2.497c-0.228,0.748 -0.552,1.388 -0.974,1.919c-0.422,0.532 -0.929,0.945 -1.523,1.238c-0.594,0.293 -1.254,0.44 -1.98,0.44c-0.352,0 -0.671,-0.035 -0.957,-0.105c-0.286,-0.069 -0.551,-0.166 -0.793,-0.291c-0.242,-0.125 -0.463,-0.277 -0.665,-0.457c-0.202,-0.179 -0.394,-0.379 -0.578,-0.599l-0.121,0.759c-0.044,0.191 -0.119,0.326 -0.225,0.407c-0.106,0.081 -0.251,0.121 -0.435,0.121l-1.793,0l0,-16.346l2.717,0l0,6.446Z" style="fill:#e6e6e6;fill-rule:nonzero;"/><path d="M240.493,14.518c0.352,-0.675 0.77,-1.205 1.254,-1.59c0.484,-0.385 1.056,-0.577 1.716,-0.577c0.52,0 0.938,0.114 1.254,0.341l-0.176,2.035c-0.037,0.132 -0.09,0.225 -0.16,0.28c-0.069,0.055 -0.163,0.083 -0.28,0.083c-0.11,0 -0.273,-0.018 -0.49,-0.055c-0.216,-0.037 -0.427,-0.055 -0.632,-0.055c-0.301,0 -0.569,0.044 -0.803,0.132c-0.235,0.088 -0.446,0.214 -0.633,0.379c-0.187,0.165 -0.352,0.365 -0.495,0.6c-0.143,0.235 -0.277,0.502 -0.401,0.803l0,6.952l-2.717,0l0,-11.286l1.595,0c0.278,0 0.473,0.049 0.583,0.148c0.11,0.099 0.183,0.277 0.22,0.534l0.165,1.276Z" style="fill:#e6e6e6;fill-rule:nonzero;"/></g></svg>