<svg version="1.0" xmlns="http://www.w3.org/2000/svg" xmlns:xlink="http://www.w3.org/1999/xlink" x="0px" y="0px"
	 viewBox="0 0 4096 4096" enable-background="new 0 0 4096 4096" xml:space="preserve">
<g>
	<rect x="1923.8" y="2" width="248.4" height="4091.1"/>
	<rect x="0" y="2" width="248.4" height="4091.1"/>
	<rect x="2.5" y="3844.7" width="4091.1" height="248.4"/>
	<rect x="2.5" y="2557.4" width="2045.5" height="248.4"/>
	<rect x="2.5" y="3203.7" width="2045.5" height="248.4"/>
	<rect x="965.8" y="2092.1" width="248.4" height="517"/>
	<rect x="3845.2" y="2" width="248.4" height="4091.1"/>
	<rect x="0" y="2" width="4091.1" height="248.4"/>
	<rect x="2045.5" y="1289.3" width="2045.5" height="248.4"/>
	<rect x="2045.5" y="642.9" width="2045.5" height="248.4"/>
	<rect x="2879.3" y="1485.9" width="248.4" height="517"/>
	<rect x="2.5" y="1920.4" width="4091.1" height="248.4"/>
	<rect x="2557.8" y="2044.6" width="248.4" height="2045.5"/>
	<rect x="3204.2" y="2044.6" width="248.4" height="2045.5"/>
	<rect x="2092.6" y="2878.4" width="517" height="248.4"/>
	<rect x="1289.8" y="1.5" width="248.4" height="2045.5"/>
	<rect x="643.4" y="1.5" width="248.4" height="2045.5"/>
	<rect x="1486.4" y="964.9" width="517" height="248.4"/>
</g>
</svg>
